<?xml version="1.0" encoding="utf-8"?>
<svg xmlns="http://www.w3.org/2000/svg" xmlns:xlink="http://www.w3.org/1999/xlink" width="1000" height="500" viewBox="0 0 4000 2000">
<defs>
  <clipPath id="clip0400">
    <rect x="0" y="0" width="4000" height="2000"/>
  </clipPath>
</defs>
<polygon clip-path="url(#clip0400)" points="
0,2000 4000,2000 4000,0 0,0 
  " fill="#ffffff" fill-rule="evenodd" fill-opacity="1"/>
<defs>
  <clipPath id="clip0401">
    <rect x="800" y="0" width="2801" height="2000"/>
  </clipPath>
</defs>
<polygon clip-path="url(#clip0400)" points="
220.227,841.529 1939.37,841.529 1939.37,107.004 220.227,107.004 
  " fill="#ffffff" fill-rule="evenodd" fill-opacity="1"/>
<defs>
  <clipPath id="clip0402">
    <rect x="220" y="107" width="1720" height="736"/>
  </clipPath>
</defs>
<polyline clip-path="url(#clip0402)" style="stroke:#000000; stroke-width:2; stroke-opacity:0.1; fill:none" points="
  265.632,841.529 265.632,107.004 
  "/>
<polyline clip-path="url(#clip0402)" style="stroke:#000000; stroke-width:2; stroke-opacity:0.1; fill:none" points="
  590.65,841.529 590.65,107.004 
  "/>
<polyline clip-path="url(#clip0402)" style="stroke:#000000; stroke-width:2; stroke-opacity:0.1; fill:none" points="
  915.667,841.529 915.667,107.004 
  "/>
<polyline clip-path="url(#clip0402)" style="stroke:#000000; stroke-width:2; stroke-opacity:0.1; fill:none" points="
  1240.68,841.529 1240.68,107.004 
  "/>
<polyline clip-path="url(#clip0402)" style="stroke:#000000; stroke-width:2; stroke-opacity:0.1; fill:none" points="
  1565.7,841.529 1565.7,107.004 
  "/>
<polyline clip-path="url(#clip0402)" style="stroke:#000000; stroke-width:2; stroke-opacity:0.1; fill:none" points="
  1890.72,841.529 1890.72,107.004 
  "/>
<polyline clip-path="url(#clip0402)" style="stroke:#000000; stroke-width:2; stroke-opacity:0.1; fill:none" points="
  220.227,776.227 1939.37,776.227 
  "/>
<polyline clip-path="url(#clip0402)" style="stroke:#000000; stroke-width:2; stroke-opacity:0.1; fill:none" points="
  220.227,679.988 1939.37,679.988 
  "/>
<polyline clip-path="url(#clip0402)" style="stroke:#000000; stroke-width:2; stroke-opacity:0.1; fill:none" points="
  220.227,583.748 1939.37,583.748 
  "/>
<polyline clip-path="url(#clip0402)" style="stroke:#000000; stroke-width:2; stroke-opacity:0.1; fill:none" points="
  220.227,487.509 1939.37,487.509 
  "/>
<polyline clip-path="url(#clip0402)" style="stroke:#000000; stroke-width:2; stroke-opacity:0.1; fill:none" points="
  220.227,391.269 1939.37,391.269 
  "/>
<polyline clip-path="url(#clip0402)" style="stroke:#000000; stroke-width:2; stroke-opacity:0.1; fill:none" points="
  220.227,295.03 1939.37,295.03 
  "/>
<polyline clip-path="url(#clip0402)" style="stroke:#000000; stroke-width:2; stroke-opacity:0.1; fill:none" points="
  220.227,198.79 1939.37,198.79 
  "/>
<polyline clip-path="url(#clip0400)" style="stroke:#000000; stroke-width:4; stroke-opacity:1; fill:none" points="
  220.227,841.529 1939.37,841.529 
  "/>
<polyline clip-path="url(#clip0400)" style="stroke:#000000; stroke-width:4; stroke-opacity:1; fill:none" points="
  220.227,841.529 220.227,107.004 
  "/>
<polyline clip-path="url(#clip0400)" style="stroke:#000000; stroke-width:4; stroke-opacity:1; fill:none" points="
  265.632,841.529 265.632,830.511 
  "/>
<polyline clip-path="url(#clip0400)" style="stroke:#000000; stroke-width:4; stroke-opacity:1; fill:none" points="
  590.65,841.529 590.65,830.511 
  "/>
<polyline clip-path="url(#clip0400)" style="stroke:#000000; stroke-width:4; stroke-opacity:1; fill:none" points="
  915.667,841.529 915.667,830.511 
  "/>
<polyline clip-path="url(#clip0400)" style="stroke:#000000; stroke-width:4; stroke-opacity:1; fill:none" points="
  1240.68,841.529 1240.68,830.511 
  "/>
<polyline clip-path="url(#clip0400)" style="stroke:#000000; stroke-width:4; stroke-opacity:1; fill:none" points="
  1565.7,841.529 1565.7,830.511 
  "/>
<polyline clip-path="url(#clip0400)" style="stroke:#000000; stroke-width:4; stroke-opacity:1; fill:none" points="
  1890.72,841.529 1890.72,830.511 
  "/>
<polyline clip-path="url(#clip0400)" style="stroke:#000000; stroke-width:4; stroke-opacity:1; fill:none" points="
  220.227,776.227 246.014,776.227 
  "/>
<polyline clip-path="url(#clip0400)" style="stroke:#000000; stroke-width:4; stroke-opacity:1; fill:none" points="
  220.227,679.988 246.014,679.988 
  "/>
<polyline clip-path="url(#clip0400)" style="stroke:#000000; stroke-width:4; stroke-opacity:1; fill:none" points="
  220.227,583.748 246.014,583.748 
  "/>
<polyline clip-path="url(#clip0400)" style="stroke:#000000; stroke-width:4; stroke-opacity:1; fill:none" points="
  220.227,487.509 246.014,487.509 
  "/>
<polyline clip-path="url(#clip0400)" style="stroke:#000000; stroke-width:4; stroke-opacity:1; fill:none" points="
  220.227,391.269 246.014,391.269 
  "/>
<polyline clip-path="url(#clip0400)" style="stroke:#000000; stroke-width:4; stroke-opacity:1; fill:none" points="
  220.227,295.03 246.014,295.03 
  "/>
<polyline clip-path="url(#clip0400)" style="stroke:#000000; stroke-width:4; stroke-opacity:1; fill:none" points="
  220.227,198.79 246.014,198.79 
  "/>
<g clip-path="url(#clip0400)">
<text style="fill:#000000; fill-opacity:1; font-family:Arial,Helvetica Neue,Helvetica,sans-serif; font-size:48px; text-anchor:middle;" transform="rotate(0, 265.632, 903.529)" x="265.632" y="903.529">0</text>
</g>
<g clip-path="url(#clip0400)">
<text style="fill:#000000; fill-opacity:1; font-family:Arial,Helvetica Neue,Helvetica,sans-serif; font-size:48px; text-anchor:middle;" transform="rotate(0, 590.65, 903.529)" x="590.65" y="903.529">100</text>
</g>
<g clip-path="url(#clip0400)">
<text style="fill:#000000; fill-opacity:1; font-family:Arial,Helvetica Neue,Helvetica,sans-serif; font-size:48px; text-anchor:middle;" transform="rotate(0, 915.667, 903.529)" x="915.667" y="903.529">200</text>
</g>
<g clip-path="url(#clip0400)">
<text style="fill:#000000; fill-opacity:1; font-family:Arial,Helvetica Neue,Helvetica,sans-serif; font-size:48px; text-anchor:middle;" transform="rotate(0, 1240.68, 903.529)" x="1240.68" y="903.529">300</text>
</g>
<g clip-path="url(#clip0400)">
<text style="fill:#000000; fill-opacity:1; font-family:Arial,Helvetica Neue,Helvetica,sans-serif; font-size:48px; text-anchor:middle;" transform="rotate(0, 1565.7, 903.529)" x="1565.7" y="903.529">400</text>
</g>
<g clip-path="url(#clip0400)">
<text style="fill:#000000; fill-opacity:1; font-family:Arial,Helvetica Neue,Helvetica,sans-serif; font-size:48px; text-anchor:middle;" transform="rotate(0, 1890.72, 903.529)" x="1890.72" y="903.529">500</text>
</g>
<g clip-path="url(#clip0400)">
<text style="fill:#000000; fill-opacity:1; font-family:Arial,Helvetica Neue,Helvetica,sans-serif; font-size:48px; text-anchor:end;" transform="rotate(0, 180.227, 793.727)" x="180.227" y="793.727">0.8</text>
</g>
<g clip-path="url(#clip0400)">
<text style="fill:#000000; fill-opacity:1; font-family:Arial,Helvetica Neue,Helvetica,sans-serif; font-size:48px; text-anchor:end;" transform="rotate(0, 180.227, 697.488)" x="180.227" y="697.488">1.0</text>
</g>
<g clip-path="url(#clip0400)">
<text style="fill:#000000; fill-opacity:1; font-family:Arial,Helvetica Neue,Helvetica,sans-serif; font-size:48px; text-anchor:end;" transform="rotate(0, 180.227, 601.248)" x="180.227" y="601.248">1.2</text>
</g>
<g clip-path="url(#clip0400)">
<text style="fill:#000000; fill-opacity:1; font-family:Arial,Helvetica Neue,Helvetica,sans-serif; font-size:48px; text-anchor:end;" transform="rotate(0, 180.227, 505.009)" x="180.227" y="505.009">1.4</text>
</g>
<g clip-path="url(#clip0400)">
<text style="fill:#000000; fill-opacity:1; font-family:Arial,Helvetica Neue,Helvetica,sans-serif; font-size:48px; text-anchor:end;" transform="rotate(0, 180.227, 408.769)" x="180.227" y="408.769">1.6</text>
</g>
<g clip-path="url(#clip0400)">
<text style="fill:#000000; fill-opacity:1; font-family:Arial,Helvetica Neue,Helvetica,sans-serif; font-size:48px; text-anchor:end;" transform="rotate(0, 180.227, 312.53)" x="180.227" y="312.53">1.8</text>
</g>
<g clip-path="url(#clip0400)">
<text style="fill:#000000; fill-opacity:1; font-family:Arial,Helvetica Neue,Helvetica,sans-serif; font-size:48px; text-anchor:end;" transform="rotate(0, 180.227, 216.29)" x="180.227" y="216.29">2.0</text>
</g>
<g clip-path="url(#clip0400)">
<text style="fill:#000000; fill-opacity:1; font-family:Arial,Helvetica Neue,Helvetica,sans-serif; font-size:82px; text-anchor:middle;" transform="rotate(0, 1079.8, 72)" x="1079.8" y="72">μ</text>
</g>
<g clip-path="url(#clip0400)">
<text style="fill:#000000; fill-opacity:1; font-family:Arial,Helvetica Neue,Helvetica,sans-serif; font-size:66px; text-anchor:middle;" transform="rotate(0, 1079.8, 991.391)" x="1079.8" y="991.391">Iteration</text>
</g>
<g clip-path="url(#clip0400)">
<text style="fill:#000000; fill-opacity:1; font-family:Arial,Helvetica Neue,Helvetica,sans-serif; font-size:66px; text-anchor:middle;" transform="rotate(-90, 61.7591, 474.267)" x="61.7591" y="474.267">Sample value</text>
</g>
<polyline clip-path="url(#clip0402)" style="stroke:#009af9; stroke-width:4; stroke-opacity:1; fill:none" points="
  268.882,674.709 272.132,710.602 275.383,694.302 278.633,681.001 281.883,715.261 285.133,719.808 288.383,739.526 291.633,741.505 294.884,762.135 298.134,762.323 
  301.384,784.588 304.634,777.94 307.884,797.382 311.134,807.331 314.385,816.768 317.635,789.816 320.885,798.889 324.135,805.183 327.385,820.74 330.636,802.863 
  333.886,816.947 337.136,766.527 340.386,725.076 343.636,723.751 346.886,744.517 350.137,777.653 353.387,791.183 356.637,802.156 359.887,762.072 363.137,751.169 
  366.387,761.677 369.638,739.731 372.888,720.036 376.138,753.552 379.388,762.364 382.638,773.203 385.888,741.575 389.139,755.552 392.389,743.43 395.639,740.239 
  398.889,705.794 402.139,706.86 405.39,699.185 408.64,665.544 411.89,664.211 415.14,691.547 418.39,679.52 421.64,691.185 424.891,682.407 428.141,674.347 
  431.391,683.323 434.641,674.759 437.891,672.536 441.141,689.267 444.392,697.79 447.642,691.58 450.892,681.811 454.142,652.772 457.392,651.212 460.643,635.873 
  463.893,639.754 467.143,647.169 470.393,671.061 473.643,660.626 476.893,628.519 480.144,584.266 483.394,559.262 486.644,568.001 489.894,545.5 493.144,502.997 
  496.394,486.503 499.645,481.799 502.895,504.167 506.145,496.625 509.395,514.38 512.645,497.312 515.896,510.808 519.146,505.12 522.396,514.09 525.646,489.415 
  528.896,473.423 532.146,459.354 535.397,470.383 538.647,515.202 541.897,520.04 545.147,542.466 548.397,512.712 551.647,514.296 554.898,520.05 558.148,483.483 
  561.398,517.875 564.648,551.355 567.898,574.576 571.148,536.441 574.399,551.683 577.649,563.18 580.899,530.617 584.149,539.276 587.399,496.762 590.65,481.282 
  593.9,507.828 597.15,510.419 600.4,542.633 603.65,530.162 606.9,525.665 610.151,530.084 613.401,569.309 616.651,571.812 619.901,536.322 623.151,571.441 
  626.401,601.643 629.652,643.352 632.902,676.912 636.152,725.524 639.402,739.426 642.652,751.059 645.903,747.822 649.153,758.714 652.403,746.824 655.653,714.431 
  658.903,712.261 662.153,698.43 665.404,686.814 668.654,674.099 671.904,695.887 675.154,670.861 678.404,704.826 681.654,698.91 684.905,732.808 688.155,759.75 
  691.405,751.86 694.655,756.003 697.905,704.792 701.155,723.986 704.406,733.442 707.656,713.07 710.906,748.368 714.156,767.843 717.406,786.862 720.657,791.203 
  723.907,794.09 727.157,808.155 730.407,786.616 733.657,752.304 736.907,757.262 740.158,697.77 743.408,674.36 746.658,658.493 749.908,650.76 753.158,674.299 
  756.408,648.202 759.659,664.495 762.909,668.567 766.159,651.942 769.409,638.556 772.659,639.971 775.91,633.594 779.16,623.649 782.41,600.674 785.66,598.298 
  788.91,579.446 792.16,592.08 795.411,574.317 798.661,575.102 801.911,599.919 805.161,553.995 808.411,572.923 811.661,598.094 814.912,557.495 818.162,555.803 
  821.412,574.607 824.662,575.907 827.912,566.192 831.162,543.839 834.413,550.722 837.663,591.368 840.913,660.448 844.163,655.624 847.413,654.037 850.664,599.556 
  853.914,595.007 857.164,592.742 860.414,568.281 863.664,588.462 866.914,564.072 870.165,580.164 873.415,596.561 876.665,621.016 879.915,620.618 883.165,653.566 
  886.415,676.312 889.666,660.464 892.916,658.253 896.166,644.873 899.416,627.797 902.666,631.256 905.917,628.691 909.167,606.126 912.417,628.668 915.667,588.268 
  918.917,588.872 922.167,584.185 925.418,596.048 928.668,608.876 931.918,587.186 935.168,631.946 938.418,645.964 941.668,621.188 944.919,602.914 948.169,568.921 
  951.419,596.091 954.669,584.943 957.919,547.926 961.17,528.717 964.42,543.441 967.67,550.96 970.92,566.375 974.17,536.54 977.42,549.116 980.671,549.532 
  983.921,543.274 987.171,512.546 990.421,527.726 993.671,507.385 996.921,537.643 1000.17,519.368 1003.42,530.888 1006.67,557.11 1009.92,574.87 1013.17,588.963 
  1016.42,583.55 1019.67,587.675 1022.92,580.104 1026.17,570.369 1029.42,588.393 1032.67,556.457 1035.92,567.539 1039.17,581.757 1042.42,590.609 1045.67,594.223 
  1048.92,562.38 1052.17,541.194 1055.42,536.699 1058.67,531.429 1061.92,535.589 1065.18,529.345 1068.43,515.084 1071.68,490.932 1074.93,470.944 1078.18,461.328 
  1081.43,483.816 1084.68,455.7 1087.93,451.914 1091.18,443.348 1094.43,401.072 1097.68,408.478 1100.93,420.902 1104.18,404.447 1107.43,381.018 1110.68,367.216 
  1113.93,381.688 1117.18,361.81 1120.43,374.049 1123.68,414.018 1126.93,402.291 1130.18,369.052 1133.43,387.764 1136.68,374.774 1139.93,338.299 1143.18,342.267 
  1146.43,295.264 1149.68,254.344 1152.93,260.88 1156.18,254.381 1159.43,260.257 1162.68,293.631 1165.93,298.548 1169.18,302.381 1172.43,293.967 1175.68,302.739 
  1178.93,286.26 1182.18,320.743 1185.43,303.967 1188.68,341.443 1191.93,273.477 1195.18,291.584 1198.43,307.502 1201.68,297.967 1204.93,273.677 1208.18,262.272 
  1211.43,283.79 1214.68,298.153 1217.93,310.009 1221.18,320.109 1224.43,308.904 1227.68,289.217 1230.93,287.006 1234.18,263.315 1237.43,246.167 1240.68,277.489 
  1243.93,281.529 1247.18,285.993 1250.44,319.957 1253.69,360.535 1256.94,343.963 1260.19,340.846 1263.44,341.78 1266.69,351.021 1269.94,339.519 1273.19,312.134 
  1276.44,292.844 1279.69,285.471 1282.94,270.672 1286.19,280.355 1289.44,274.407 1292.69,279.272 1295.94,281.38 1299.19,296.201 1302.44,301.13 1305.69,283.242 
  1308.94,291.588 1312.19,289.869 1315.44,262.675 1318.69,266.988 1321.94,246.024 1325.19,224.259 1328.44,175.632 1331.69,174.63 1334.94,166.838 1338.19,192.307 
  1341.44,237.016 1344.69,241.543 1347.94,232.061 1351.19,257.755 1354.44,231.7 1357.69,256.754 1360.94,261.33 1364.19,273.959 1367.44,285.557 1370.69,279.847 
  1373.94,278.634 1377.19,279.537 1380.44,222.605 1383.69,244.297 1386.94,217.08 1390.19,232.292 1393.44,230.375 1396.69,252.152 1399.94,211.453 1403.19,202.743 
  1406.44,243.106 1409.69,208.259 1412.94,169.34 1416.19,171.774 1419.44,163.78 1422.69,175.869 1425.94,217.375 1429.19,215.35 1432.44,224.767 1435.7,244.293 
  1438.95,256.208 1442.2,293.458 1445.45,271.295 1448.7,239.833 1451.95,275.458 1455.2,252.448 1458.45,237.262 1461.7,271.146 1464.95,281.802 1468.2,279.943 
  1471.45,318.897 1474.7,336.967 1477.95,342.108 1481.2,360.151 1484.45,382.651 1487.7,369.331 1490.95,373.513 1494.2,361.957 1497.45,330.828 1500.7,350.908 
  1503.95,363.566 1507.2,345.175 1510.45,346.661 1513.7,325.715 1516.95,312.042 1520.2,292.464 1523.45,303.792 1526.7,326.454 1529.95,332.603 1533.2,358.498 
  1536.45,376.333 1539.7,397.092 1542.95,374.247 1546.2,372.363 1549.45,390.423 1552.7,396.927 1555.95,418.706 1559.2,417.056 1562.45,411.767 1565.7,379.831 
  1568.95,426.569 1572.2,418.318 1575.45,393.681 1578.7,442.478 1581.95,469.161 1585.2,405.477 1588.45,417.641 1591.7,411.577 1594.95,416.47 1598.2,412.192 
  1601.45,410.041 1604.7,398.177 1607.95,426.73 1611.2,403.682 1614.45,439.097 1617.7,455.467 1620.96,422.312 1624.21,403.021 1627.46,410.413 1630.71,371.301 
  1633.96,390.265 1637.21,347.789 1640.46,338.911 1643.71,340.415 1646.96,323.803 1650.21,329.742 1653.46,338.007 1656.71,311.795 1659.96,344.283 1663.21,304.084 
  1666.46,288.635 1669.71,267.493 1672.96,259.39 1676.21,231.805 1679.46,208.338 1682.71,209.246 1685.96,221.593 1689.21,200.688 1692.46,156.577 1695.71,176.348 
  1698.96,145.224 1702.21,153.928 1705.46,157.893 1708.71,127.793 1711.96,144.978 1715.21,207.657 1718.46,228.831 1721.71,270.46 1724.96,236.639 1728.21,258.49 
  1731.46,310.605 1734.71,289.992 1737.96,304.087 1741.21,283.229 1744.46,290.418 1747.71,346.784 1750.96,370.859 1754.21,337.178 1757.46,360.596 1760.71,330.612 
  1763.96,354.244 1767.21,392.759 1770.46,426.429 1773.71,413.288 1776.96,435.498 1780.21,464.463 1783.46,460.946 1786.71,465.259 1789.96,447.421 1793.21,452.445 
  1796.46,457.098 1799.71,420.363 1802.96,442.686 1806.22,444.871 1809.47,425.23 1812.72,423.655 1815.97,409.364 1819.22,430.645 1822.47,428.942 1825.72,477.288 
  1828.97,469.187 1832.22,488.492 1835.47,504.003 1838.72,473.167 1841.97,457.636 1845.22,440.513 1848.47,400.247 1851.72,400.607 1854.97,420.693 1858.22,422.366 
  1861.47,433.658 1864.72,496.81 1867.97,507.761 1871.22,499.741 1874.47,502.321 1877.72,509.038 1880.97,540.014 1884.22,550.158 1887.47,531.599 1890.72,547.861 
  
  "/>
<polygon clip-path="url(#clip0400)" points="
2233.61,841.529 3952.76,841.529 3952.76,107.004 2233.61,107.004 
  " fill="#ffffff" fill-rule="evenodd" fill-opacity="1"/>
<defs>
  <clipPath id="clip0403">
    <rect x="2233" y="107" width="1720" height="736"/>
  </clipPath>
</defs>
<polyline clip-path="url(#clip0403)" style="stroke:#000000; stroke-width:2; stroke-opacity:0.1; fill:none" points="
  2409.55,841.529 2409.55,107.004 
  "/>
<polyline clip-path="url(#clip0403)" style="stroke:#000000; stroke-width:2; stroke-opacity:0.1; fill:none" points="
  2778.08,841.529 2778.08,107.004 
  "/>
<polyline clip-path="url(#clip0403)" style="stroke:#000000; stroke-width:2; stroke-opacity:0.1; fill:none" points="
  3146.6,841.529 3146.6,107.004 
  "/>
<polyline clip-path="url(#clip0403)" style="stroke:#000000; stroke-width:2; stroke-opacity:0.1; fill:none" points="
  3515.13,841.529 3515.13,107.004 
  "/>
<polyline clip-path="url(#clip0403)" style="stroke:#000000; stroke-width:2; stroke-opacity:0.1; fill:none" points="
  3883.66,841.529 3883.66,107.004 
  "/>
<polyline clip-path="url(#clip0403)" style="stroke:#000000; stroke-width:2; stroke-opacity:0.1; fill:none" points="
  2233.61,820.75 3952.76,820.75 
  "/>
<polyline clip-path="url(#clip0403)" style="stroke:#000000; stroke-width:2; stroke-opacity:0.1; fill:none" points="
  2233.61,669.108 3952.76,669.108 
  "/>
<polyline clip-path="url(#clip0403)" style="stroke:#000000; stroke-width:2; stroke-opacity:0.1; fill:none" points="
  2233.61,517.466 3952.76,517.466 
  "/>
<polyline clip-path="url(#clip0403)" style="stroke:#000000; stroke-width:2; stroke-opacity:0.1; fill:none" points="
  2233.61,365.823 3952.76,365.823 
  "/>
<polyline clip-path="url(#clip0403)" style="stroke:#000000; stroke-width:2; stroke-opacity:0.1; fill:none" points="
  2233.61,214.181 3952.76,214.181 
  "/>
<polyline clip-path="url(#clip0400)" style="stroke:#000000; stroke-width:4; stroke-opacity:1; fill:none" points="
  2233.61,841.529 3952.76,841.529 
  "/>
<polyline clip-path="url(#clip0400)" style="stroke:#000000; stroke-width:4; stroke-opacity:1; fill:none" points="
  2233.61,841.529 2233.61,107.004 
  "/>
<polyline clip-path="url(#clip0400)" style="stroke:#000000; stroke-width:4; stroke-opacity:1; fill:none" points="
  2409.55,841.529 2409.55,830.511 
  "/>
<polyline clip-path="url(#clip0400)" style="stroke:#000000; stroke-width:4; stroke-opacity:1; fill:none" points="
  2778.08,841.529 2778.08,830.511 
  "/>
<polyline clip-path="url(#clip0400)" style="stroke:#000000; stroke-width:4; stroke-opacity:1; fill:none" points="
  3146.6,841.529 3146.6,830.511 
  "/>
<polyline clip-path="url(#clip0400)" style="stroke:#000000; stroke-width:4; stroke-opacity:1; fill:none" points="
  3515.13,841.529 3515.13,830.511 
  "/>
<polyline clip-path="url(#clip0400)" style="stroke:#000000; stroke-width:4; stroke-opacity:1; fill:none" points="
  3883.66,841.529 3883.66,830.511 
  "/>
<polyline clip-path="url(#clip0400)" style="stroke:#000000; stroke-width:4; stroke-opacity:1; fill:none" points="
  2233.61,820.75 2259.4,820.75 
  "/>
<polyline clip-path="url(#clip0400)" style="stroke:#000000; stroke-width:4; stroke-opacity:1; fill:none" points="
  2233.61,669.108 2259.4,669.108 
  "/>
<polyline clip-path="url(#clip0400)" style="stroke:#000000; stroke-width:4; stroke-opacity:1; fill:none" points="
  2233.61,517.466 2259.4,517.466 
  "/>
<polyline clip-path="url(#clip0400)" style="stroke:#000000; stroke-width:4; stroke-opacity:1; fill:none" points="
  2233.61,365.823 2259.4,365.823 
  "/>
<polyline clip-path="url(#clip0400)" style="stroke:#000000; stroke-width:4; stroke-opacity:1; fill:none" points="
  2233.61,214.181 2259.4,214.181 
  "/>
<g clip-path="url(#clip0400)">
<text style="fill:#000000; fill-opacity:1; font-family:Arial,Helvetica Neue,Helvetica,sans-serif; font-size:48px; text-anchor:middle;" transform="rotate(0, 2409.55, 903.529)" x="2409.55" y="903.529">0.5</text>
</g>
<g clip-path="url(#clip0400)">
<text style="fill:#000000; fill-opacity:1; font-family:Arial,Helvetica Neue,Helvetica,sans-serif; font-size:48px; text-anchor:middle;" transform="rotate(0, 2778.08, 903.529)" x="2778.08" y="903.529">1.0</text>
</g>
<g clip-path="url(#clip0400)">
<text style="fill:#000000; fill-opacity:1; font-family:Arial,Helvetica Neue,Helvetica,sans-serif; font-size:48px; text-anchor:middle;" transform="rotate(0, 3146.6, 903.529)" x="3146.6" y="903.529">1.5</text>
</g>
<g clip-path="url(#clip0400)">
<text style="fill:#000000; fill-opacity:1; font-family:Arial,Helvetica Neue,Helvetica,sans-serif; font-size:48px; text-anchor:middle;" transform="rotate(0, 3515.13, 903.529)" x="3515.13" y="903.529">2.0</text>
</g>
<g clip-path="url(#clip0400)">
<text style="fill:#000000; fill-opacity:1; font-family:Arial,Helvetica Neue,Helvetica,sans-serif; font-size:48px; text-anchor:middle;" transform="rotate(0, 3883.66, 903.529)" x="3883.66" y="903.529">2.5</text>
</g>
<g clip-path="url(#clip0400)">
<text style="fill:#000000; fill-opacity:1; font-family:Arial,Helvetica Neue,Helvetica,sans-serif; font-size:48px; text-anchor:end;" transform="rotate(0, 2193.61, 838.25)" x="2193.61" y="838.25">0.0</text>
</g>
<g clip-path="url(#clip0400)">
<text style="fill:#000000; fill-opacity:1; font-family:Arial,Helvetica Neue,Helvetica,sans-serif; font-size:48px; text-anchor:end;" transform="rotate(0, 2193.61, 686.608)" x="2193.61" y="686.608">0.2</text>
</g>
<g clip-path="url(#clip0400)">
<text style="fill:#000000; fill-opacity:1; font-family:Arial,Helvetica Neue,Helvetica,sans-serif; font-size:48px; text-anchor:end;" transform="rotate(0, 2193.61, 534.966)" x="2193.61" y="534.966">0.4</text>
</g>
<g clip-path="url(#clip0400)">
<text style="fill:#000000; fill-opacity:1; font-family:Arial,Helvetica Neue,Helvetica,sans-serif; font-size:48px; text-anchor:end;" transform="rotate(0, 2193.61, 383.323)" x="2193.61" y="383.323">0.6</text>
</g>
<g clip-path="url(#clip0400)">
<text style="fill:#000000; fill-opacity:1; font-family:Arial,Helvetica Neue,Helvetica,sans-serif; font-size:48px; text-anchor:end;" transform="rotate(0, 2193.61, 231.681)" x="2193.61" y="231.681">0.8</text>
</g>
<g clip-path="url(#clip0400)">
<text style="fill:#000000; fill-opacity:1; font-family:Arial,Helvetica Neue,Helvetica,sans-serif; font-size:82px; text-anchor:middle;" transform="rotate(0, 3093.18, 72)" x="3093.18" y="72">μ</text>
</g>
<g clip-path="url(#clip0400)">
<text style="fill:#000000; fill-opacity:1; font-family:Arial,Helvetica Neue,Helvetica,sans-serif; font-size:66px; text-anchor:middle;" transform="rotate(0, 3093.18, 991.391)" x="3093.18" y="991.391">Sample value</text>
</g>
<g clip-path="url(#clip0400)">
<text style="fill:#000000; fill-opacity:1; font-family:Arial,Helvetica Neue,Helvetica,sans-serif; font-size:66px; text-anchor:middle;" transform="rotate(-90, 2075.14, 474.267)" x="2075.14" y="474.267">Density</text>
</g>
<polyline clip-path="url(#clip0403)" style="stroke:#009af9; stroke-width:4; stroke-opacity:1; fill:none" points="
  2282.26,820.738 2290.41,820.733 2298.56,820.725 2306.71,820.711 2314.86,820.689 2323.01,820.656 2331.16,820.607 2339.31,820.535 2347.46,820.43 2355.61,820.281 
  2363.76,820.069 2371.91,819.775 2380.06,819.369 2388.21,818.819 2396.36,818.081 2404.51,817.105 2412.66,815.83 2420.81,814.187 2428.96,812.096 2437.11,809.467 
  2445.26,806.206 2453.41,802.21 2461.56,797.374 2469.71,791.596 2477.86,784.775 2486.01,776.822 2494.16,767.66 2502.31,757.232 2510.46,745.503 2518.61,732.465 
  2526.76,718.14 2534.91,702.582 2543.06,685.876 2551.21,668.138 2559.36,649.514 2567.51,630.173 2575.66,610.304 2583.81,590.113 2591.96,569.808 2600.11,549.601 
  2608.26,529.694 2616.41,510.274 2624.56,491.509 2632.71,473.538 2640.86,456.472 2649.01,440.389 2657.16,425.335 2665.31,411.324 2673.46,398.344 2681.61,386.358 
  2689.76,375.314 2697.91,365.149 2706.06,355.795 2714.21,347.184 2722.36,339.256 2730.51,331.953 2738.66,325.227 2746.81,319.034 2754.96,313.327 2763.11,308.059 
  2771.26,303.168 2779.41,298.579 2787.56,294.196 2795.71,289.901 2803.86,285.557 2812.01,281.009 2820.16,276.096 2828.31,270.655 2836.46,264.541 2844.61,257.633 
  2852.76,249.849 2860.91,241.16 2869.06,231.595 2877.21,221.246 2885.36,210.271 2893.51,198.886 2901.66,187.36 2909.81,176.001 2917.96,165.14 2926.11,155.117 
  2934.26,146.259 2942.41,138.867 2950.56,133.201 2958.71,129.464 2966.86,127.793 2975.01,128.256 2983.16,130.845 2991.31,135.482 2999.46,142.017 3007.61,150.24 
  3015.76,159.886 3023.91,170.65 3032.06,182.193 3040.21,194.165 3048.36,206.21 3056.51,217.983 3064.66,229.163 3072.81,239.466 3080.96,248.653 3089.11,256.54 
  3097.26,263.002 3105.41,267.975 3113.56,271.457 3121.71,273.502 3129.86,274.213 3138.01,273.736 3146.16,272.239 3154.31,269.91 3162.46,266.936 3170.61,263.494 
  3178.76,259.736 3186.91,255.786 3195.06,251.729 3203.21,247.608 3211.36,243.43 3219.51,239.164 3227.66,234.75 3235.81,230.109 3243.96,225.152 3252.11,219.795 
  3260.26,213.965 3268.41,207.618 3276.56,200.747 3284.71,193.388 3292.86,185.629 3301.01,177.612 3309.16,169.532 3317.31,161.635 3325.46,154.21 3333.61,147.58 
  3341.76,142.086 3349.91,138.075 3358.06,135.885 3366.2,135.822 3374.35,138.151 3382.5,143.077 3390.65,150.737 3398.8,161.19 3406.95,174.413 3415.1,190.306 
  3423.25,208.692 3431.4,229.329 3439.55,251.919 3447.7,276.127 3455.85,301.591 3464,327.942 3472.15,354.817 3480.3,381.873 3488.45,408.797 3496.6,435.317 
  3504.75,461.205 3512.9,486.281 3521.05,510.414 3529.2,533.514 3537.35,555.536 3545.5,576.464 3553.65,596.31 3561.8,615.105 3569.95,632.888 3578.1,649.705 
  3586.25,665.597 3594.4,680.603 3602.55,694.749 3610.7,708.057 3618.85,720.536 3627,732.189 3635.15,743.015 3643.3,753.011 3651.45,762.176 3659.6,770.511 
  3667.75,778.027 3675.9,784.74 3684.05,790.677 3692.2,795.873 3700.35,800.372 3708.5,804.224 3716.65,807.484 3724.8,810.211 3732.95,812.466 3741.1,814.308 
  3749.25,815.795 3757.4,816.98 3765.55,817.913 3773.7,818.639 3781.85,819.197 3790,819.621 3798.15,819.938 3806.3,820.173 3814.45,820.344 3822.6,820.468 
  3830.75,820.557 3838.9,820.619 3847.05,820.662 3855.2,820.692 3863.35,820.712 3871.5,820.725 3879.65,820.733 3887.8,820.738 3895.95,820.74 3904.1,820.74 
  
  "/>
<polygon clip-path="url(#clip0400)" points="
220.227,1841.53 1939.37,1841.53 1939.37,1107 220.227,1107 
  " fill="#ffffff" fill-rule="evenodd" fill-opacity="1"/>
<defs>
  <clipPath id="clip0404">
    <rect x="220" y="1107" width="1720" height="736"/>
  </clipPath>
</defs>
<polyline clip-path="url(#clip0404)" style="stroke:#000000; stroke-width:2; stroke-opacity:0.1; fill:none" points="
  265.632,1841.53 265.632,1107 
  "/>
<polyline clip-path="url(#clip0404)" style="stroke:#000000; stroke-width:2; stroke-opacity:0.1; fill:none" points="
  590.65,1841.53 590.65,1107 
  "/>
<polyline clip-path="url(#clip0404)" style="stroke:#000000; stroke-width:2; stroke-opacity:0.1; fill:none" points="
  915.667,1841.53 915.667,1107 
  "/>
<polyline clip-path="url(#clip0404)" style="stroke:#000000; stroke-width:2; stroke-opacity:0.1; fill:none" points="
  1240.68,1841.53 1240.68,1107 
  "/>
<polyline clip-path="url(#clip0404)" style="stroke:#000000; stroke-width:2; stroke-opacity:0.1; fill:none" points="
  1565.7,1841.53 1565.7,1107 
  "/>
<polyline clip-path="url(#clip0404)" style="stroke:#000000; stroke-width:2; stroke-opacity:0.1; fill:none" points="
  1890.72,1841.53 1890.72,1107 
  "/>
<polyline clip-path="url(#clip0404)" style="stroke:#000000; stroke-width:2; stroke-opacity:0.1; fill:none" points="
  220.227,1733.19 1939.37,1733.19 
  "/>
<polyline clip-path="url(#clip0404)" style="stroke:#000000; stroke-width:2; stroke-opacity:0.1; fill:none" points="
  220.227,1598.64 1939.37,1598.64 
  "/>
<polyline clip-path="url(#clip0404)" style="stroke:#000000; stroke-width:2; stroke-opacity:0.1; fill:none" points="
  220.227,1464.09 1939.37,1464.09 
  "/>
<polyline clip-path="url(#clip0404)" style="stroke:#000000; stroke-width:2; stroke-opacity:0.1; fill:none" points="
  220.227,1329.54 1939.37,1329.54 
  "/>
<polyline clip-path="url(#clip0404)" style="stroke:#000000; stroke-width:2; stroke-opacity:0.1; fill:none" points="
  220.227,1194.99 1939.37,1194.99 
  "/>
<polyline clip-path="url(#clip0400)" style="stroke:#000000; stroke-width:4; stroke-opacity:1; fill:none" points="
  220.227,1841.53 1939.37,1841.53 
  "/>
<polyline clip-path="url(#clip0400)" style="stroke:#000000; stroke-width:4; stroke-opacity:1; fill:none" points="
  220.227,1841.53 220.227,1107 
  "/>
<polyline clip-path="url(#clip0400)" style="stroke:#000000; stroke-width:4; stroke-opacity:1; fill:none" points="
  265.632,1841.53 265.632,1830.51 
  "/>
<polyline clip-path="url(#clip0400)" style="stroke:#000000; stroke-width:4; stroke-opacity:1; fill:none" points="
  590.65,1841.53 590.65,1830.51 
  "/>
<polyline clip-path="url(#clip0400)" style="stroke:#000000; stroke-width:4; stroke-opacity:1; fill:none" points="
  915.667,1841.53 915.667,1830.51 
  "/>
<polyline clip-path="url(#clip0400)" style="stroke:#000000; stroke-width:4; stroke-opacity:1; fill:none" points="
  1240.68,1841.53 1240.68,1830.51 
  "/>
<polyline clip-path="url(#clip0400)" style="stroke:#000000; stroke-width:4; stroke-opacity:1; fill:none" points="
  1565.7,1841.53 1565.7,1830.51 
  "/>
<polyline clip-path="url(#clip0400)" style="stroke:#000000; stroke-width:4; stroke-opacity:1; fill:none" points="
  1890.72,1841.53 1890.72,1830.51 
  "/>
<polyline clip-path="url(#clip0400)" style="stroke:#000000; stroke-width:4; stroke-opacity:1; fill:none" points="
  220.227,1733.19 246.014,1733.19 
  "/>
<polyline clip-path="url(#clip0400)" style="stroke:#000000; stroke-width:4; stroke-opacity:1; fill:none" points="
  220.227,1598.64 246.014,1598.64 
  "/>
<polyline clip-path="url(#clip0400)" style="stroke:#000000; stroke-width:4; stroke-opacity:1; fill:none" points="
  220.227,1464.09 246.014,1464.09 
  "/>
<polyline clip-path="url(#clip0400)" style="stroke:#000000; stroke-width:4; stroke-opacity:1; fill:none" points="
  220.227,1329.54 246.014,1329.54 
  "/>
<polyline clip-path="url(#clip0400)" style="stroke:#000000; stroke-width:4; stroke-opacity:1; fill:none" points="
  220.227,1194.99 246.014,1194.99 
  "/>
<g clip-path="url(#clip0400)">
<text style="fill:#000000; fill-opacity:1; font-family:Arial,Helvetica Neue,Helvetica,sans-serif; font-size:48px; text-anchor:middle;" transform="rotate(0, 265.632, 1903.53)" x="265.632" y="1903.53">0</text>
</g>
<g clip-path="url(#clip0400)">
<text style="fill:#000000; fill-opacity:1; font-family:Arial,Helvetica Neue,Helvetica,sans-serif; font-size:48px; text-anchor:middle;" transform="rotate(0, 590.65, 1903.53)" x="590.65" y="1903.53">100</text>
</g>
<g clip-path="url(#clip0400)">
<text style="fill:#000000; fill-opacity:1; font-family:Arial,Helvetica Neue,Helvetica,sans-serif; font-size:48px; text-anchor:middle;" transform="rotate(0, 915.667, 1903.53)" x="915.667" y="1903.53">200</text>
</g>
<g clip-path="url(#clip0400)">
<text style="fill:#000000; fill-opacity:1; font-family:Arial,Helvetica Neue,Helvetica,sans-serif; font-size:48px; text-anchor:middle;" transform="rotate(0, 1240.68, 1903.53)" x="1240.68" y="1903.53">300</text>
</g>
<g clip-path="url(#clip0400)">
<text style="fill:#000000; fill-opacity:1; font-family:Arial,Helvetica Neue,Helvetica,sans-serif; font-size:48px; text-anchor:middle;" transform="rotate(0, 1565.7, 1903.53)" x="1565.7" y="1903.53">400</text>
</g>
<g clip-path="url(#clip0400)">
<text style="fill:#000000; fill-opacity:1; font-family:Arial,Helvetica Neue,Helvetica,sans-serif; font-size:48px; text-anchor:middle;" transform="rotate(0, 1890.72, 1903.53)" x="1890.72" y="1903.53">500</text>
</g>
<g clip-path="url(#clip0400)">
<text style="fill:#000000; fill-opacity:1; font-family:Arial,Helvetica Neue,Helvetica,sans-serif; font-size:48px; text-anchor:end;" transform="rotate(0, 180.227, 1750.69)" x="180.227" y="1750.69">3</text>
</g>
<g clip-path="url(#clip0400)">
<text style="fill:#000000; fill-opacity:1; font-family:Arial,Helvetica Neue,Helvetica,sans-serif; font-size:48px; text-anchor:end;" transform="rotate(0, 180.227, 1616.14)" x="180.227" y="1616.14">6</text>
</g>
<g clip-path="url(#clip0400)">
<text style="fill:#000000; fill-opacity:1; font-family:Arial,Helvetica Neue,Helvetica,sans-serif; font-size:48px; text-anchor:end;" transform="rotate(0, 180.227, 1481.59)" x="180.227" y="1481.59">9</text>
</g>
<g clip-path="url(#clip0400)">
<text style="fill:#000000; fill-opacity:1; font-family:Arial,Helvetica Neue,Helvetica,sans-serif; font-size:48px; text-anchor:end;" transform="rotate(0, 180.227, 1347.04)" x="180.227" y="1347.04">12</text>
</g>
<g clip-path="url(#clip0400)">
<text style="fill:#000000; fill-opacity:1; font-family:Arial,Helvetica Neue,Helvetica,sans-serif; font-size:48px; text-anchor:end;" transform="rotate(0, 180.227, 1212.49)" x="180.227" y="1212.49">15</text>
</g>
<g clip-path="url(#clip0400)">
<text style="fill:#000000; fill-opacity:1; font-family:Arial,Helvetica Neue,Helvetica,sans-serif; font-size:82px; text-anchor:middle;" transform="rotate(0, 1079.8, 1072)" x="1079.8" y="1072">σ²</text>
</g>
<g clip-path="url(#clip0400)">
<text style="fill:#000000; fill-opacity:1; font-family:Arial,Helvetica Neue,Helvetica,sans-serif; font-size:66px; text-anchor:middle;" transform="rotate(0, 1079.8, 1991.39)" x="1079.8" y="1991.39">Iteration</text>
</g>
<g clip-path="url(#clip0400)">
<text style="fill:#000000; fill-opacity:1; font-family:Arial,Helvetica Neue,Helvetica,sans-serif; font-size:66px; text-anchor:middle;" transform="rotate(-90, 75.1403, 1474.27)" x="75.1403" y="1474.27">Sample value</text>
</g>
<polyline clip-path="url(#clip0404)" style="stroke:#009af9; stroke-width:4; stroke-opacity:1; fill:none" points="
  268.882,1449.55 272.132,1443.72 275.383,1402.98 278.633,1382.55 281.883,1369.69 285.133,1354.65 288.383,1381.33 291.633,1390.03 294.884,1440.88 298.134,1447.59 
  301.384,1469.9 304.634,1465.65 307.884,1471.32 311.134,1477.54 314.385,1476.54 317.635,1450.13 320.885,1438.09 324.135,1408.77 327.385,1423.38 330.636,1404.31 
  333.886,1401.73 337.136,1371.33 340.386,1361.21 343.636,1354.54 346.886,1340.26 350.137,1354.25 353.387,1318.82 356.637,1323.57 359.887,1361.88 363.137,1331.12 
  366.387,1355.04 369.638,1379.83 372.888,1428.86 376.138,1412.86 379.388,1391.05 382.638,1382.1 385.888,1388.62 389.139,1364.27 392.389,1353.92 395.639,1345.5 
  398.889,1323.5 402.139,1293.72 405.39,1237.2 408.64,1239.78 411.89,1243.31 415.14,1228.19 418.39,1281.2 421.64,1248.96 424.891,1228.39 428.141,1270.51 
  431.391,1285.63 434.641,1268.64 437.891,1293.28 441.141,1269.71 444.392,1221.17 447.642,1213.01 450.892,1263.72 454.142,1249.1 457.392,1186.08 460.643,1196.41 
  463.893,1208.53 467.143,1147.17 470.393,1179.95 473.643,1198.3 476.893,1168.28 480.144,1154.22 483.394,1152.5 486.644,1127.79 489.894,1160.44 493.144,1195.5 
  496.394,1224.1 499.645,1274.24 502.895,1298.37 506.145,1311.92 509.395,1310.41 512.645,1309.07 515.896,1300.6 519.146,1326.4 522.396,1330.2 525.646,1321.19 
  528.896,1359.19 532.146,1347.31 535.397,1384.57 538.647,1400.74 541.897,1454.26 545.147,1462.49 548.397,1488.3 551.647,1497 554.898,1493.39 558.148,1501.78 
  561.398,1488.81 564.648,1518.17 567.898,1497.01 571.148,1509.97 574.399,1501.21 577.649,1470.79 580.899,1472.85 584.149,1470.04 587.399,1447.99 590.65,1411.03 
  593.9,1376.65 597.15,1411.85 600.4,1422.75 603.65,1424.53 606.9,1437.37 610.151,1438.26 613.401,1471.35 616.651,1440.04 619.901,1456.02 623.151,1396.33 
  626.401,1391.16 629.652,1401.42 632.902,1435.07 636.152,1399.45 639.402,1372.18 642.652,1355 645.903,1379.62 649.153,1382.79 652.403,1353.06 655.653,1362.11 
  658.903,1348.97 662.153,1367.39 665.404,1321.03 668.654,1343.48 671.904,1343.84 675.154,1336.52 678.404,1381.07 681.654,1382.9 684.905,1369.97 688.155,1391.96 
  691.405,1398.43 694.655,1423.69 697.905,1436.79 701.155,1421.86 704.406,1453.73 707.656,1435.42 710.906,1428.05 714.156,1425 717.406,1452.52 720.657,1463.34 
  723.907,1479.38 727.157,1488.14 730.407,1474.88 733.657,1519.45 736.907,1542.85 740.158,1570.72 743.408,1569.71 746.658,1587.26 749.908,1575.6 753.158,1572.73 
  756.408,1588.23 759.659,1606.35 762.909,1598.98 766.159,1582.71 769.409,1571.56 772.659,1574.41 775.91,1558.35 779.16,1563.59 782.41,1558.36 785.66,1549.91 
  788.91,1527.9 792.16,1540.32 795.411,1543.36 798.661,1530.57 801.911,1493.96 805.161,1504.97 808.411,1512.75 811.661,1508.72 814.912,1524.26 818.162,1504.01 
  821.412,1531.31 824.662,1524.05 827.912,1562.38 831.162,1565.32 834.413,1565.03 837.663,1559.25 840.913,1563.72 844.163,1560.43 847.413,1560.68 850.664,1561.14 
  853.914,1560.24 857.164,1554.67 860.414,1531.82 863.664,1557.39 866.914,1563.87 870.165,1566.49 873.415,1562.86 876.665,1578.86 879.915,1553.68 883.165,1540.9 
  886.415,1546.11 889.666,1555.81 892.916,1573.78 896.166,1571.56 899.416,1588.78 902.666,1602.59 905.917,1602.69 909.167,1581.81 912.417,1569.31 915.667,1562.95 
  918.917,1536.78 922.167,1570.47 925.418,1563.56 928.668,1577.31 931.918,1600.97 935.168,1627.86 938.418,1642.12 941.668,1649.74 944.919,1636.53 948.169,1643.31 
  951.419,1654.72 954.669,1646.51 957.919,1654.71 961.17,1661.39 964.42,1673 967.67,1650.99 970.92,1660.31 974.17,1665.55 977.42,1676.2 980.671,1680.48 
  983.921,1686.38 987.171,1671.92 990.421,1668.86 993.671,1667.63 996.921,1651.68 1000.17,1650.32 1003.42,1650.91 1006.67,1655.6 1009.92,1655.85 1013.17,1645.12 
  1016.42,1668.51 1019.67,1684.9 1022.92,1687.49 1026.17,1692.65 1029.42,1686.06 1032.67,1682.71 1035.92,1676.12 1039.17,1684.62 1042.42,1686.63 1045.67,1689.39 
  1048.92,1693.44 1052.17,1685.3 1055.42,1686.33 1058.67,1698.02 1061.92,1700.91 1065.18,1714.01 1068.43,1706.83 1071.68,1710.55 1074.93,1704.24 1078.18,1708.3 
  1081.43,1710.34 1084.68,1702.68 1087.93,1700.56 1091.18,1704.09 1094.43,1695.11 1097.68,1676.17 1100.93,1684.01 1104.18,1687.9 1107.43,1703.59 1110.68,1710.45 
  1113.93,1715.66 1117.18,1713.91 1120.43,1707.29 1123.68,1706.94 1126.93,1702.32 1130.18,1712.75 1133.43,1711.32 1136.68,1703.73 1139.93,1705 1143.18,1710.27 
  1146.43,1710.79 1149.68,1724.25 1152.93,1737.19 1156.18,1733.39 1159.43,1736.53 1162.68,1739.73 1165.93,1729.29 1169.18,1735.34 1172.43,1747.13 1175.68,1742.64 
  1178.93,1742.01 1182.18,1740.35 1185.43,1741.32 1188.68,1729.89 1191.93,1722.34 1195.18,1713.48 1198.43,1711.64 1201.68,1705.33 1204.93,1707.26 1208.18,1706.67 
  1211.43,1697.89 1214.68,1708.66 1217.93,1716.38 1221.18,1720.41 1224.43,1722.24 1227.68,1717.97 1230.93,1732.46 1234.18,1732.71 1237.43,1730.06 1240.68,1730.17 
  1243.93,1734.44 1247.18,1737.65 1250.44,1745.63 1253.69,1742.14 1256.94,1746.91 1260.19,1751.72 1263.44,1745.93 1266.69,1753.57 1269.94,1758.34 1273.19,1751.77 
  1276.44,1752 1279.69,1746.2 1282.94,1742.67 1286.19,1747.47 1289.44,1742.72 1292.69,1741.1 1295.94,1748.21 1299.19,1735.75 1302.44,1733.15 1305.69,1745.77 
  1308.94,1751.21 1312.19,1756.11 1315.44,1752.68 1318.69,1763.23 1321.94,1759.71 1325.19,1751.56 1328.44,1753.42 1331.69,1760.22 1334.94,1775.47 1338.19,1775.74 
  1341.44,1782.91 1344.69,1782.68 1347.94,1783.43 1351.19,1788.88 1354.44,1788.97 1357.69,1793.18 1360.94,1789.88 1364.19,1792.24 1367.44,1789 1370.69,1787.98 
  1373.94,1791.3 1377.19,1795.99 1380.44,1800.94 1383.69,1799.97 1386.94,1799.83 1390.19,1793.95 1393.44,1790.19 1396.69,1784.83 1399.94,1785.16 1403.19,1788.84 
  1406.44,1789.33 1409.69,1793.16 1412.94,1790.97 1416.19,1797.8 1419.44,1799.08 1422.69,1801.19 1425.94,1796.53 1429.19,1797.78 1432.44,1791.49 1435.7,1793.19 
  1438.95,1796.21 1442.2,1796.14 1445.45,1795.52 1448.7,1797.65 1451.95,1792.08 1455.2,1790.83 1458.45,1786.15 1461.7,1794.54 1464.95,1793.53 1468.2,1792.74 
  1471.45,1794.83 1474.7,1794.61 1477.95,1793.17 1481.2,1799.03 1484.45,1799.52 1487.7,1803.21 1490.95,1806.2 1494.2,1809.02 1497.45,1811.22 1500.7,1813.16 
  1503.95,1815.31 1507.2,1815.38 1510.45,1811.5 1513.7,1813.29 1516.95,1815.39 1520.2,1820.74 1523.45,1818.05 1526.7,1817.09 1529.95,1813.01 1533.2,1810.81 
  1536.45,1804.76 1539.7,1804.69 1542.95,1805.71 1546.2,1809.93 1549.45,1809.18 1552.7,1805.57 1555.95,1802.44 1559.2,1801.49 1562.45,1802.1 1565.7,1803.11 
  1568.95,1801.76 1572.2,1800.45 1575.45,1794.63 1578.7,1795.23 1581.95,1797.75 1585.2,1803.47 1588.45,1795.93 1591.7,1796.43 1594.95,1803.35 1598.2,1808.63 
  1601.45,1808.59 1604.7,1810.22 1607.95,1808.91 1611.2,1810.36 1614.45,1810.11 1617.7,1810.61 1620.96,1809.6 1624.21,1806.34 1627.46,1802.65 1630.71,1802.3 
  1633.96,1800.3 1637.21,1802.18 1640.46,1807.29 1643.71,1802.34 1646.96,1796.32 1650.21,1793.25 1653.46,1790.68 1656.71,1787.97 1659.96,1782.25 1663.21,1783.4 
  1666.46,1783.55 1669.71,1779.49 1672.96,1779.9 1676.21,1776.34 1679.46,1773.88 1682.71,1773.68 1685.96,1775.42 1689.21,1773.6 1692.46,1777.09 1695.71,1773.65 
  1698.96,1766.89 1702.21,1768.62 1705.46,1781.68 1708.71,1773.26 1711.96,1771.2 1715.21,1770.06 1718.46,1776.52 1721.71,1773.68 1724.96,1773.63 1728.21,1780.09 
  1731.46,1779.59 1734.71,1786.35 1737.96,1793.43 1741.21,1784.95 1744.46,1783.85 1747.71,1784.72 1750.96,1784.91 1754.21,1784 1757.46,1784.85 1760.71,1789.56 
  1763.96,1795.36 1767.21,1800.81 1770.46,1804.4 1773.71,1798.63 1776.96,1802.03 1780.21,1802.6 1783.46,1802.69 1786.71,1798.99 1789.96,1797.48 1793.21,1799.79 
  1796.46,1799.24 1799.71,1797.06 1802.96,1795.98 1806.22,1799.57 1809.47,1796.91 1812.72,1791.46 1815.97,1791.63 1819.22,1786.11 1822.47,1784.81 1825.72,1789.15 
  1828.97,1789.13 1832.22,1792.49 1835.47,1791.59 1838.72,1790.84 1841.97,1792.28 1845.22,1797.72 1848.47,1803.83 1851.72,1804.8 1854.97,1803.8 1858.22,1806.91 
  1861.47,1805.45 1864.72,1811.42 1867.97,1811.28 1871.22,1809.43 1874.47,1808.24 1877.72,1810.21 1880.97,1808.49 1884.22,1806.56 1887.47,1807.66 1890.72,1807.96 
  
  "/>
<polygon clip-path="url(#clip0400)" points="
2233.61,1841.53 3952.76,1841.53 3952.76,1107 2233.61,1107 
  " fill="#ffffff" fill-rule="evenodd" fill-opacity="1"/>
<defs>
  <clipPath id="clip0405">
    <rect x="2233" y="1107" width="1720" height="736"/>
  </clipPath>
</defs>
<polyline clip-path="url(#clip0405)" style="stroke:#000000; stroke-width:2; stroke-opacity:0.1; fill:none" points="
  2501.39,1841.53 2501.39,1107 
  "/>
<polyline clip-path="url(#clip0405)" style="stroke:#000000; stroke-width:2; stroke-opacity:0.1; fill:none" points="
  2838.67,1841.53 2838.67,1107 
  "/>
<polyline clip-path="url(#clip0405)" style="stroke:#000000; stroke-width:2; stroke-opacity:0.1; fill:none" points="
  3175.94,1841.53 3175.94,1107 
  "/>
<polyline clip-path="url(#clip0405)" style="stroke:#000000; stroke-width:2; stroke-opacity:0.1; fill:none" points="
  3513.21,1841.53 3513.21,1107 
  "/>
<polyline clip-path="url(#clip0405)" style="stroke:#000000; stroke-width:2; stroke-opacity:0.1; fill:none" points="
  3850.49,1841.53 3850.49,1107 
  "/>
<polyline clip-path="url(#clip0405)" style="stroke:#000000; stroke-width:2; stroke-opacity:0.1; fill:none" points="
  2233.61,1820.75 3952.76,1820.75 
  "/>
<polyline clip-path="url(#clip0405)" style="stroke:#000000; stroke-width:2; stroke-opacity:0.1; fill:none" points="
  2233.61,1596.81 3952.76,1596.81 
  "/>
<polyline clip-path="url(#clip0405)" style="stroke:#000000; stroke-width:2; stroke-opacity:0.1; fill:none" points="
  2233.61,1372.86 3952.76,1372.86 
  "/>
<polyline clip-path="url(#clip0405)" style="stroke:#000000; stroke-width:2; stroke-opacity:0.1; fill:none" points="
  2233.61,1148.92 3952.76,1148.92 
  "/>
<polyline clip-path="url(#clip0400)" style="stroke:#000000; stroke-width:4; stroke-opacity:1; fill:none" points="
  2233.61,1841.53 3952.76,1841.53 
  "/>
<polyline clip-path="url(#clip0400)" style="stroke:#000000; stroke-width:4; stroke-opacity:1; fill:none" points="
  2233.61,1841.53 2233.61,1107 
  "/>
<polyline clip-path="url(#clip0400)" style="stroke:#000000; stroke-width:4; stroke-opacity:1; fill:none" points="
  2501.39,1841.53 2501.39,1830.51 
  "/>
<polyline clip-path="url(#clip0400)" style="stroke:#000000; stroke-width:4; stroke-opacity:1; fill:none" points="
  2838.67,1841.53 2838.67,1830.51 
  "/>
<polyline clip-path="url(#clip0400)" style="stroke:#000000; stroke-width:4; stroke-opacity:1; fill:none" points="
  3175.94,1841.53 3175.94,1830.51 
  "/>
<polyline clip-path="url(#clip0400)" style="stroke:#000000; stroke-width:4; stroke-opacity:1; fill:none" points="
  3513.21,1841.53 3513.21,1830.51 
  "/>
<polyline clip-path="url(#clip0400)" style="stroke:#000000; stroke-width:4; stroke-opacity:1; fill:none" points="
  3850.49,1841.53 3850.49,1830.51 
  "/>
<polyline clip-path="url(#clip0400)" style="stroke:#000000; stroke-width:4; stroke-opacity:1; fill:none" points="
  2233.61,1820.75 2259.4,1820.75 
  "/>
<polyline clip-path="url(#clip0400)" style="stroke:#000000; stroke-width:4; stroke-opacity:1; fill:none" points="
  2233.61,1596.81 2259.4,1596.81 
  "/>
<polyline clip-path="url(#clip0400)" style="stroke:#000000; stroke-width:4; stroke-opacity:1; fill:none" points="
  2233.61,1372.86 2259.4,1372.86 
  "/>
<polyline clip-path="url(#clip0400)" style="stroke:#000000; stroke-width:4; stroke-opacity:1; fill:none" points="
  2233.61,1148.92 2259.4,1148.92 
  "/>
<g clip-path="url(#clip0400)">
<text style="fill:#000000; fill-opacity:1; font-family:Arial,Helvetica Neue,Helvetica,sans-serif; font-size:48px; text-anchor:middle;" transform="rotate(0, 2501.39, 1903.53)" x="2501.39" y="1903.53">0</text>
</g>
<g clip-path="url(#clip0400)">
<text style="fill:#000000; fill-opacity:1; font-family:Arial,Helvetica Neue,Helvetica,sans-serif; font-size:48px; text-anchor:middle;" transform="rotate(0, 2838.67, 1903.53)" x="2838.67" y="1903.53">5</text>
</g>
<g clip-path="url(#clip0400)">
<text style="fill:#000000; fill-opacity:1; font-family:Arial,Helvetica Neue,Helvetica,sans-serif; font-size:48px; text-anchor:middle;" transform="rotate(0, 3175.94, 1903.53)" x="3175.94" y="1903.53">10</text>
</g>
<g clip-path="url(#clip0400)">
<text style="fill:#000000; fill-opacity:1; font-family:Arial,Helvetica Neue,Helvetica,sans-serif; font-size:48px; text-anchor:middle;" transform="rotate(0, 3513.21, 1903.53)" x="3513.21" y="1903.53">15</text>
</g>
<g clip-path="url(#clip0400)">
<text style="fill:#000000; fill-opacity:1; font-family:Arial,Helvetica Neue,Helvetica,sans-serif; font-size:48px; text-anchor:middle;" transform="rotate(0, 3850.49, 1903.53)" x="3850.49" y="1903.53">20</text>
</g>
<g clip-path="url(#clip0400)">
<text style="fill:#000000; fill-opacity:1; font-family:Arial,Helvetica Neue,Helvetica,sans-serif; font-size:48px; text-anchor:end;" transform="rotate(0, 2193.61, 1838.25)" x="2193.61" y="1838.25">0.00</text>
</g>
<g clip-path="url(#clip0400)">
<text style="fill:#000000; fill-opacity:1; font-family:Arial,Helvetica Neue,Helvetica,sans-serif; font-size:48px; text-anchor:end;" transform="rotate(0, 2193.61, 1614.31)" x="2193.61" y="1614.31">0.05</text>
</g>
<g clip-path="url(#clip0400)">
<text style="fill:#000000; fill-opacity:1; font-family:Arial,Helvetica Neue,Helvetica,sans-serif; font-size:48px; text-anchor:end;" transform="rotate(0, 2193.61, 1390.36)" x="2193.61" y="1390.36">0.10</text>
</g>
<g clip-path="url(#clip0400)">
<text style="fill:#000000; fill-opacity:1; font-family:Arial,Helvetica Neue,Helvetica,sans-serif; font-size:48px; text-anchor:end;" transform="rotate(0, 2193.61, 1166.42)" x="2193.61" y="1166.42">0.15</text>
</g>
<g clip-path="url(#clip0400)">
<text style="fill:#000000; fill-opacity:1; font-family:Arial,Helvetica Neue,Helvetica,sans-serif; font-size:82px; text-anchor:middle;" transform="rotate(0, 3093.18, 1072)" x="3093.18" y="1072">σ²</text>
</g>
<g clip-path="url(#clip0400)">
<text style="fill:#000000; fill-opacity:1; font-family:Arial,Helvetica Neue,Helvetica,sans-serif; font-size:66px; text-anchor:middle;" transform="rotate(0, 3093.18, 1991.39)" x="3093.18" y="1991.39">Sample value</text>
</g>
<g clip-path="url(#clip0400)">
<text style="fill:#000000; fill-opacity:1; font-family:Arial,Helvetica Neue,Helvetica,sans-serif; font-size:66px; text-anchor:middle;" transform="rotate(-90, 2048.38, 1474.27)" x="2048.38" y="1474.27">Density</text>
</g>
<polyline clip-path="url(#clip0405)" style="stroke:#009af9; stroke-width:4; stroke-opacity:1; fill:none" points="
  2282.26,1820.72 2290.41,1820.7 2298.56,1820.66 2306.71,1820.61 2314.86,1820.54 2323.01,1820.42 2331.16,1820.25 2339.31,1820 2347.46,1819.63 2355.61,1819.11 
  2363.76,1818.38 2371.91,1817.36 2380.06,1815.96 2388.21,1814.07 2396.36,1811.53 2404.51,1808.19 2412.66,1803.84 2420.81,1798.25 2428.96,1791.18 2437.11,1782.34 
  2445.26,1771.44 2453.41,1758.2 2461.56,1742.34 2469.71,1723.6 2477.86,1701.79 2486.01,1676.77 2494.16,1648.5 2502.31,1617.04 2510.46,1582.58 2518.61,1545.43 
  2526.76,1506.06 2534.91,1465.05 2543.06,1423.12 2551.21,1381.05 2559.36,1339.72 2567.51,1300.03 2575.66,1262.87 2583.81,1229.06 2591.96,1199.36 2600.11,1174.36 
  2608.26,1154.52 2616.41,1140.12 2624.56,1131.24 2632.71,1127.79 2640.86,1129.53 2649.01,1136.04 2657.16,1146.81 2665.31,1161.26 2673.46,1178.75 2681.61,1198.65 
  2689.76,1220.34 2697.91,1243.28 2706.06,1266.96 2714.21,1290.97 2722.36,1314.99 2730.51,1338.75 2738.66,1362.07 2746.81,1384.82 2754.96,1406.91 2763.11,1428.27 
  2771.26,1448.84 2779.41,1468.57 2787.56,1487.4 2795.71,1505.25 2803.86,1522.03 2812.01,1537.62 2820.16,1551.94 2828.31,1564.86 2836.46,1576.28 2844.61,1586.13 
  2852.76,1594.35 2860.91,1600.93 2869.06,1605.89 2877.21,1609.29 2885.36,1611.26 2893.51,1611.93 2901.66,1611.51 2909.81,1610.21 2917.96,1608.26 2926.11,1605.89 
  2934.26,1603.35 2942.41,1600.84 2950.56,1598.56 2958.71,1596.63 2966.86,1595.19 2975.01,1594.27 2983.16,1593.92 2991.31,1594.09 2999.46,1594.72 3007.61,1595.74 
  3015.76,1597.04 3023.91,1598.49 3032.06,1599.98 3040.21,1601.4 3048.36,1602.65 3056.51,1603.64 3064.66,1604.32 3072.81,1604.64 3080.96,1604.6 3089.11,1604.18 
  3097.26,1603.42 3105.41,1602.36 3113.56,1601.03 3121.71,1599.49 3129.86,1597.82 3138.01,1596.06 3146.16,1594.3 3154.31,1592.61 3162.46,1591.04 3170.61,1589.68 
  3178.76,1588.59 3186.91,1587.84 3195.06,1587.5 3203.21,1587.62 3211.36,1588.28 3219.51,1589.5 3227.66,1591.34 3235.81,1593.82 3243.96,1596.95 3252.11,1600.74 
  3260.26,1605.16 3268.41,1610.18 3276.56,1615.76 3284.71,1621.83 3292.86,1628.31 3301.01,1635.12 3309.16,1642.17 3317.31,1649.35 3325.46,1656.58 3333.61,1663.75 
  3341.76,1670.8 3349.91,1677.63 3358.06,1684.19 3366.2,1690.42 3374.35,1696.3 3382.5,1701.79 3390.65,1706.89 3398.8,1711.6 3406.95,1715.94 3415.1,1719.93 
  3423.25,1723.6 3431.4,1726.99 3439.55,1730.15 3447.7,1733.11 3455.85,1735.92 3464,1738.61 3472.15,1741.24 3480.3,1743.82 3488.45,1746.4 3496.6,1749 
  3504.75,1751.63 3512.9,1754.32 3521.05,1757.08 3529.2,1759.91 3537.35,1762.82 3545.5,1765.8 3553.65,1768.85 3561.8,1771.95 3569.95,1775.1 3578.1,1778.27 
  3586.25,1781.44 3594.4,1784.6 3602.55,1787.71 3610.7,1790.76 3618.85,1793.72 3627,1796.56 3635.15,1799.28 3643.3,1801.84 3651.45,1804.23 3659.6,1806.44 
  3667.75,1808.46 3675.9,1810.29 3684.05,1811.93 3692.2,1813.38 3700.35,1814.66 3708.5,1815.76 3716.65,1816.7 3724.8,1817.5 3732.95,1818.16 3741.1,1818.72 
  3749.25,1819.17 3757.4,1819.53 3765.55,1819.82 3773.7,1820.05 3781.85,1820.23 3790,1820.36 3798.15,1820.47 3806.3,1820.55 3814.45,1820.61 3822.6,1820.65 
  3830.75,1820.68 3838.9,1820.7 3847.05,1820.72 3855.2,1820.73 3863.35,1820.73 3871.5,1820.74 3879.65,1820.74 3887.8,1820.74 3895.95,1820.74 3904.1,1820.73 
  
  "/>
</svg>
