<?xml version="1.0" encoding="utf-8"?>
<svg xmlns="http://www.w3.org/2000/svg" xmlns:xlink="http://www.w3.org/1999/xlink" width="600" height="400" viewBox="0 0 2400 1600">
<defs>
  <clipPath id="clip2300">
    <rect x="0" y="0" width="2000" height="2000"/>
  </clipPath>
</defs>
<defs>
  <clipPath id="clip2301">
    <rect x="0" y="0" width="2400" height="1600"/>
  </clipPath>
</defs>
<polygon clip-path="url(#clip2301)" points="
0,1600 2400,1600 2400,0 0,0 
  " fill="#ffffff" fill-rule="evenodd" fill-opacity="0"/>
<defs>
  <clipPath id="clip2302">
    <rect x="480" y="0" width="1681" height="1600"/>
  </clipPath>
</defs>
<polygon clip-path="url(#clip2301)" points="
161.394,1503.47 2321.26,1503.47 2321.26,47.2441 161.394,47.2441 
  " fill="#ffffff" fill-rule="evenodd" fill-opacity="0"/>
<defs>
  <clipPath id="clip2303">
    <rect x="161" y="47" width="2161" height="1457"/>
  </clipPath>
</defs>
<polyline clip-path="url(#clip2303)" style="stroke:#b352cc; stroke-width:60; stroke-opacity:1; fill:none" points="
  222.522,1462.26 223.881,1462.26 225.239,1462.26 226.598,1462.26 227.956,1462.26 229.314,1462.26 230.673,1462.26 232.031,1462.26 233.39,1462.26 234.748,1462.26 
  236.106,1462.26 237.465,1462.26 238.823,1462.26 240.182,1462.26 241.54,1462.26 242.898,1462.26 244.257,1462.26 245.615,1462.26 246.974,1462.26 248.332,1462.26 
  249.69,1462.26 251.049,1462.26 252.407,1462.26 253.766,1462.26 255.124,1462.26 256.482,1462.26 257.841,1462.26 259.199,1462.26 260.558,1462.26 261.916,1462.26 
  263.275,1462.26 264.633,1462.26 265.991,1462.26 267.35,1462.26 268.708,1462.26 270.067,1462.26 271.425,1462.26 272.783,1462.26 274.142,1462.26 275.5,1462.26 
  276.859,1462.26 278.217,1462.26 279.575,1462.26 280.934,1462.26 282.292,1462.26 283.651,1462.26 285.009,1462.26 286.367,1462.26 287.726,1462.26 289.084,1462.26 
  290.443,1462.26 291.801,1462.26 293.159,1462.26 294.518,1462.26 295.876,1462.26 297.235,1462.26 298.593,1462.26 299.951,1462.26 301.31,1462.26 302.668,1462.26 
  304.027,1462.26 305.385,1462.26 306.743,1462.26 308.102,1462.26 309.46,1462.26 310.819,1462.26 312.177,1462.26 313.536,1462.26 314.894,1462.26 316.252,1462.26 
  317.611,1462.26 318.969,1462.26 320.328,1462.26 321.686,1462.26 323.044,1462.26 324.403,1462.26 325.761,1462.26 327.12,1462.26 328.478,1462.26 329.836,1462.26 
  331.195,1462.26 332.553,1462.26 333.912,1462.26 335.27,1462.26 336.628,1462.26 337.987,1462.26 339.345,1462.26 340.704,1462.26 342.062,1462.26 343.42,1462.26 
  344.779,1462.26 346.137,1462.26 347.496,1462.26 348.854,1462.26 350.212,1462.26 351.571,1462.26 352.929,1462.26 354.288,1462.26 355.646,1462.26 357.005,1462.26 
  358.363,1462.26 359.721,1462.26 361.08,1462.26 362.438,1462.26 363.797,1462.26 365.155,1462.26 366.513,1462.26 367.872,1462.26 369.23,1462.26 370.589,1462.26 
  371.947,1462.26 373.305,1462.26 374.664,1462.26 376.022,1462.26 377.381,1462.26 378.739,1462.26 380.097,1462.26 381.456,1462.26 382.814,1462.26 384.173,1462.26 
  385.531,1462.26 386.889,1462.26 388.248,1462.26 389.606,1462.26 390.965,1462.26 392.323,1462.26 393.681,1462.26 395.04,1462.26 396.398,1462.26 397.757,1462.26 
  399.115,1462.26 400.474,1462.26 401.832,1462.26 403.19,1462.26 404.549,1462.26 405.907,1462.26 407.266,1462.26 408.624,1462.26 409.982,1462.26 411.341,1462.26 
  412.699,1462.26 414.058,1462.26 415.416,1462.26 416.774,1462.26 418.133,1462.26 419.491,1462.26 420.85,1462.26 422.208,1462.26 423.566,1462.26 424.925,1462.26 
  426.283,1462.26 427.642,1462.26 429,1462.26 430.358,1462.26 431.717,1462.26 433.075,1462.26 434.434,1462.26 435.792,1462.26 437.15,1462.26 438.509,1462.26 
  439.867,1462.26 441.226,1462.26 442.584,1462.26 443.943,1462.26 445.301,1462.26 446.659,1462.26 448.018,1462.26 449.376,1462.26 450.735,1462.26 452.093,1462.26 
  453.451,1462.26 454.81,1462.26 456.168,1462.26 457.527,1462.26 458.885,1462.26 460.243,1462.26 461.602,1462.26 462.96,1462.26 464.319,1462.26 465.677,1462.26 
  467.035,1462.26 468.394,1462.26 469.752,1462.26 471.111,1462.26 472.469,1462.26 473.827,1462.26 475.186,1462.26 476.544,1462.26 477.903,1462.26 479.261,1462.26 
  480.619,1462.26 481.978,1462.26 483.336,1462.26 484.695,1462.26 486.053,1462.26 487.412,1462.26 488.77,1462.26 490.128,1462.26 491.487,1462.26 492.845,1462.26 
  494.204,1462.26 495.562,1462.26 496.92,1462.26 498.279,1462.26 499.637,1462.26 500.996,1462.26 502.354,1462.26 503.712,1462.26 505.071,1462.26 506.429,1462.26 
  507.788,1462.26 509.146,1462.26 510.504,1462.26 511.863,1462.26 513.221,1462.26 514.58,1462.26 515.938,1462.26 517.296,1462.26 518.655,1462.26 520.013,1462.26 
  521.372,1462.26 522.73,1462.26 524.088,1462.26 525.447,1462.26 526.805,1462.26 528.164,1462.26 529.522,1462.26 530.881,1462.26 532.239,1462.26 533.597,1462.26 
  534.956,1462.26 536.314,1462.26 537.673,1462.26 539.031,1462.26 540.389,1462.26 541.748,1462.26 543.106,1462.26 544.465,1462.26 545.823,1462.26 547.181,1462.26 
  548.54,1462.26 549.898,1462.26 551.257,1462.26 552.615,1462.26 553.973,1462.26 555.332,1462.26 556.69,1462.26 558.049,1462.26 559.407,1462.26 560.765,1462.26 
  562.124,1462.26 563.482,1462.26 564.841,1462.26 566.199,1462.26 567.557,1462.26 568.916,1462.26 570.274,1462.26 571.633,1462.26 572.991,1462.26 574.35,1462.26 
  575.708,1462.26 577.066,1462.26 578.425,1462.26 579.783,1462.26 581.142,1462.26 582.5,1462.26 583.858,1462.26 585.217,1462.26 586.575,1462.26 587.934,1462.26 
  589.292,1462.26 590.65,1462.26 592.009,1462.26 593.367,1462.26 594.726,1462.26 596.084,1462.26 597.442,1462.26 598.801,1462.26 600.159,1462.26 601.518,1462.26 
  602.876,1462.26 604.234,1462.26 605.593,1462.26 606.951,1462.26 608.31,1462.26 609.668,1462.26 611.026,1462.26 612.385,1462.26 613.743,1462.26 615.102,1462.26 
  616.46,1462.26 617.819,1462.26 619.177,1462.26 620.535,1462.26 621.894,1462.26 623.252,1462.26 624.611,1462.26 625.969,1462.26 627.327,1462.26 628.686,1462.26 
  630.044,1462.26 631.403,1462.26 632.761,1462.26 634.119,1462.26 635.478,1462.26 636.836,1462.26 638.195,1462.26 639.553,1462.26 640.911,1462.26 642.27,1462.26 
  643.628,1462.26 644.987,1462.26 646.345,1462.26 647.703,1462.26 649.062,1462.26 650.42,1462.26 651.779,1462.26 653.137,1462.26 654.495,1462.26 655.854,1462.26 
  657.212,1462.26 658.571,1462.26 659.929,1462.26 661.288,1462.26 662.646,1462.26 664.004,1462.26 665.363,1462.26 666.721,1462.26 668.08,1462.26 669.438,1462.26 
  670.796,1462.26 672.155,1462.26 673.513,1462.26 674.872,1462.26 676.23,1462.26 677.588,1462.26 678.947,1462.26 680.305,1462.26 681.664,1462.26 683.022,1462.26 
  684.38,1462.26 685.739,1462.26 687.097,1462.26 688.456,1462.26 689.814,1462.26 691.172,1462.26 692.531,1462.26 693.889,1462.26 695.248,1462.26 696.606,1462.26 
  697.964,1462.26 699.323,1462.26 700.681,1462.26 702.04,1462.26 703.398,1462.26 704.757,1462.26 706.115,1462.26 707.473,1462.26 708.832,1462.26 710.19,1462.26 
  711.549,1462.26 712.907,1462.26 714.265,1462.26 715.624,1462.26 716.982,1462.26 718.341,1462.26 719.699,1462.26 721.057,1462.26 722.416,1462.26 723.774,1462.26 
  725.133,1462.26 726.491,1462.26 727.849,1462.26 729.208,1462.26 730.566,1462.26 731.925,1462.26 733.283,1462.26 734.641,1462.26 736,1462.26 737.358,1462.26 
  738.717,1462.26 740.075,1462.26 741.433,1462.26 742.792,1462.26 744.15,1462.26 745.509,1462.26 746.867,1462.26 748.226,1462.26 749.584,1462.26 750.942,1462.26 
  752.301,1462.26 753.659,1462.26 755.018,1462.26 756.376,1462.26 757.734,1462.26 759.093,1462.26 760.451,1462.26 761.81,1462.26 763.168,1462.26 764.526,1462.26 
  765.885,1462.26 767.243,1462.26 768.602,1462.26 769.96,1462.26 771.318,1462.26 772.677,1462.26 774.035,1462.26 775.394,1462.26 776.752,1462.26 778.11,1462.26 
  779.469,1462.26 780.827,1462.26 782.186,1462.26 783.544,1462.26 784.902,1462.26 786.261,1462.26 787.619,1462.26 788.978,1462.26 790.336,1462.26 791.694,1462.26 
  793.053,1462.26 794.411,1462.26 795.77,1462.26 797.128,1462.26 798.487,1462.26 799.845,1462.26 801.203,1462.26 802.562,1462.26 803.92,1462.26 805.279,1462.26 
  806.637,1462.26 807.995,1462.26 809.354,1462.26 810.712,1462.26 812.071,1462.26 813.429,1462.26 814.787,1462.26 816.146,1462.26 817.504,1462.26 818.863,1462.26 
  820.221,1462.26 821.579,1462.26 822.938,1462.26 824.296,1462.26 825.655,1462.26 827.013,1462.26 828.371,1462.26 829.73,1462.26 831.088,1462.26 832.447,1462.26 
  833.805,1462.26 835.163,1462.26 836.522,1462.26 837.88,1462.26 839.239,1462.26 840.597,1462.26 841.956,1462.26 843.314,1462.26 844.672,1462.26 846.031,1462.26 
  847.389,1462.26 848.748,1462.26 850.106,1462.26 851.464,1462.26 852.823,1462.26 854.181,1462.26 855.54,1462.26 856.898,1462.26 858.256,1462.26 859.615,1462.26 
  860.973,1462.26 862.332,1462.26 863.69,1462.26 865.048,1462.26 866.407,1462.26 867.765,1462.26 869.124,1462.26 870.482,1462.26 871.84,1462.26 873.199,1462.26 
  874.557,1462.26 875.916,1462.26 877.274,1462.26 878.632,1462.26 879.991,1462.26 881.349,1462.26 882.708,1462.26 884.066,1462.26 885.425,1462.26 886.783,1462.26 
  888.141,1462.26 889.5,1462.26 890.858,1462.26 892.217,1462.26 893.575,1462.26 894.933,1462.26 896.292,1462.26 897.65,1462.26 899.009,1462.26 900.367,1462.26 
  901.725,1462.26 903.084,1462.26 904.442,1462.26 905.801,1462.26 907.159,1462.26 908.517,1462.26 909.876,1462.26 911.234,1462.26 912.593,1462.26 913.951,1462.26 
  915.309,1462.26 916.668,1462.26 918.026,1462.26 919.385,1462.26 920.743,1462.25 922.101,1462.25 923.46,1462.25 924.818,1462.25 926.177,1462.25 927.535,1462.25 
  928.894,1462.25 930.252,1462.25 931.61,1462.25 932.969,1462.25 934.327,1462.25 935.686,1462.25 937.044,1462.25 938.402,1462.25 939.761,1462.25 941.119,1462.25 
  942.478,1462.25 943.836,1462.25 945.194,1462.25 946.553,1462.25 947.911,1462.25 949.27,1462.24 950.628,1462.24 951.986,1462.24 953.345,1462.24 954.703,1462.24 
  956.062,1462.24 957.42,1462.24 958.778,1462.24 960.137,1462.24 961.495,1462.24 962.854,1462.24 964.212,1462.23 965.57,1462.23 966.929,1462.23 968.287,1462.23 
  969.646,1462.23 971.004,1462.23 972.363,1462.23 973.721,1462.22 975.079,1462.22 976.438,1462.22 977.796,1462.22 979.155,1462.22 980.513,1462.22 981.871,1462.21 
  983.23,1462.21 984.588,1462.21 985.947,1462.21 987.305,1462.2 988.663,1462.2 990.022,1462.2 991.38,1462.2 992.739,1462.19 994.097,1462.19 995.455,1462.19 
  996.814,1462.18 998.172,1462.18 999.531,1462.18 1000.89,1462.17 1002.25,1462.17 1003.61,1462.17 1004.96,1462.16 1006.32,1462.16 1007.68,1462.15 1009.04,1462.15 
  1010.4,1462.14 1011.76,1462.14 1013.11,1462.13 1014.47,1462.13 1015.83,1462.12 1017.19,1462.12 1018.55,1462.11 1019.91,1462.1 1021.27,1462.1 1022.62,1462.09 
  1023.98,1462.08 1025.34,1462.08 1026.7,1462.07 1028.06,1462.06 1029.42,1462.05 1030.77,1462.04 1032.13,1462.03 1033.49,1462.02 1034.85,1462.02 1036.21,1462.01 
  1037.57,1461.99 1038.92,1461.98 1040.28,1461.97 1041.64,1461.96 1043,1461.95 1044.36,1461.94 1045.72,1461.92 1047.07,1461.91 1048.43,1461.9 1049.79,1461.88 
  1051.15,1461.87 1052.51,1461.85 1053.87,1461.83 1055.23,1461.82 1056.58,1461.8 1057.94,1461.78 1059.3,1461.76 1060.66,1461.74 1062.02,1461.72 1063.38,1461.7 
  1064.73,1461.68 1066.09,1461.66 1067.45,1461.63 1068.81,1461.61 1070.17,1461.59 1071.53,1461.56 1072.88,1461.53 1074.24,1461.51 1075.6,1461.48 1076.96,1461.45 
  1078.32,1461.42 1079.68,1461.38 1081.04,1461.35 1082.39,1461.32 1083.75,1461.28 1085.11,1461.25 1086.47,1461.21 1087.83,1461.17 1089.19,1461.13 1090.54,1461.09 
  1091.9,1461.04 1093.26,1461 1094.62,1460.95 1095.98,1460.91 1097.34,1460.86 1098.69,1460.81 1100.05,1460.75 1101.41,1460.7 1102.77,1460.64 1104.13,1460.59 
  1105.49,1460.53 1106.84,1460.46 1108.2,1460.4 1109.56,1460.33 1110.92,1460.27 1112.28,1460.2 1113.64,1460.12 1115,1460.05 1116.35,1459.97 1117.71,1459.89 
  1119.07,1459.81 1120.43,1459.73 1121.79,1459.64 1123.15,1459.55 1124.5,1459.46 1125.86,1459.36 1127.22,1459.26 1128.58,1459.16 1129.94,1459.06 1131.3,1458.95 
  1132.65,1458.84 1134.01,1458.72 1135.37,1458.6 1136.73,1458.48 1138.09,1458.36 1139.45,1458.23 1140.8,1458.09 1142.16,1457.96 1143.52,1457.82 1144.88,1457.67 
  1146.24,1457.52 1147.6,1457.37 1148.96,1457.21 1150.31,1457.05 1151.67,1456.88 1153.03,1456.71 1154.39,1456.53 1155.75,1456.35 1157.11,1456.16 1158.46,1455.96 
  1159.82,1455.77 1161.18,1455.56 1162.54,1455.35 1163.9,1455.14 1165.26,1454.91 1166.61,1454.69 1167.97,1454.45 1169.33,1454.21 1170.69,1453.96 1172.05,1453.71 
  1173.41,1453.45 1174.77,1453.18 1176.12,1452.91 1177.48,1452.62 1178.84,1452.33 1180.2,1452.04 1181.56,1451.73 1182.92,1451.42 1184.27,1451.1 1185.63,1450.76 
  1186.99,1450.43 1188.35,1450.08 1189.71,1449.72 1191.07,1449.36 1192.42,1448.98 1193.78,1448.6 1195.14,1448.2 1196.5,1447.8 1197.86,1447.38 1199.22,1446.96 
  1200.57,1446.52 1201.93,1446.08 1203.29,1445.62 1204.65,1445.15 1206.01,1444.67 1207.37,1444.18 1208.73,1443.68 1210.08,1443.16 1211.44,1442.64 1212.8,1442.09 
  1214.16,1441.54 1215.52,1440.98 1216.88,1440.4 1218.23,1439.8 1219.59,1439.2 1220.95,1438.58 1222.31,1437.94 1223.67,1437.29 1225.03,1436.63 1226.38,1435.95 
  1227.74,1435.26 1229.1,1434.55 1230.46,1433.82 1231.82,1433.08 1233.18,1432.32 1234.53,1431.54 1235.89,1430.75 1237.25,1429.94 1238.61,1429.12 1239.97,1428.27 
  1241.33,1427.41 1242.69,1426.53 1244.04,1425.63 1245.4,1424.71 1246.76,1423.78 1248.12,1422.82 1249.48,1421.84 1250.84,1420.85 1252.19,1419.83 1253.55,1418.79 
  1254.91,1417.74 1256.27,1416.66 1257.63,1415.56 1258.99,1414.43 1260.34,1413.29 1261.7,1412.12 1263.06,1410.93 1264.42,1409.72 1265.78,1408.48 1267.14,1407.22 
  1268.5,1405.94 1269.85,1404.63 1271.21,1403.3 1272.57,1401.95 1273.93,1400.56 1275.29,1399.16 1276.65,1397.72 1278,1396.27 1279.36,1394.78 1280.72,1393.27 
  1282.08,1391.73 1283.44,1390.17 1284.8,1388.57 1286.15,1386.95 1287.51,1385.3 1288.87,1383.63 1290.23,1381.92 1291.59,1380.19 1292.95,1378.43 1294.3,1376.64 
  1295.66,1374.81 1297.02,1372.96 1298.38,1371.08 1299.74,1369.17 1301.1,1367.23 1302.46,1365.25 1303.81,1363.25 1305.17,1361.21 1306.53,1359.15 1307.89,1357.05 
  1309.25,1354.92 1310.61,1352.75 1311.96,1350.56 1313.32,1348.33 1314.68,1346.07 1316.04,1343.78 1317.4,1341.45 1318.76,1339.09 1320.11,1336.69 1321.47,1334.27 
  1322.83,1331.81 1324.19,1329.31 1325.55,1326.78 1326.91,1324.22 1328.26,1321.62 1329.62,1318.98 1330.98,1316.32 1332.34,1313.61 1333.7,1310.87 1335.06,1308.1 
  1336.42,1305.29 1337.77,1302.45 1339.13,1299.57 1340.49,1296.66 1341.85,1293.71 1343.21,1290.73 1344.57,1287.71 1345.92,1284.65 1347.28,1281.56 1348.64,1278.44 
  1350,1275.28 1351.36,1272.08 1352.72,1268.85 1354.07,1265.58 1355.43,1262.28 1356.79,1258.94 1358.15,1255.57 1359.51,1252.16 1360.87,1248.72 1362.23,1245.24 
  1363.58,1241.73 1364.94,1238.19 1366.3,1234.61 1367.66,1230.99 1369.02,1227.34 1370.38,1223.66 1371.73,1219.95 1373.09,1216.2 1374.45,1212.42 1375.81,1208.6 
  1377.17,1204.76 1378.53,1200.88 1379.88,1196.97 1381.24,1193.03 1382.6,1189.05 1383.96,1185.05 1385.32,1181.01 1386.68,1176.95 1388.03,1172.85 1389.39,1168.73 
  1390.75,1164.58 1392.11,1160.4 1393.47,1156.19 1394.83,1151.95 1396.19,1147.68 1397.54,1143.39 1398.9,1139.07 1400.26,1134.73 1401.62,1130.36 1402.98,1125.97 
  1404.34,1121.55 1405.69,1117.11 1407.05,1112.65 1408.41,1108.16 1409.77,1103.65 1411.13,1099.12 1412.49,1094.57 1413.84,1090 1415.2,1085.42 1416.56,1080.81 
  1417.92,1076.19 1419.28,1071.54 1420.64,1066.89 1421.99,1062.21 1423.35,1057.53 1424.71,1052.82 1426.07,1048.11 1427.43,1043.38 1428.79,1038.64 1430.15,1033.89 
  1431.5,1029.13 1432.86,1024.36 1434.22,1019.59 1435.58,1014.8 1436.94,1010.01 1438.3,1005.22 1439.65,1000.41 1441.01,995.61 1442.37,990.802 1443.73,985.992 
  1445.09,981.182 1446.45,976.371 1447.8,971.561 1449.16,966.754 1450.52,961.949 1451.88,957.148 1453.24,952.352 1454.6,947.562 1455.96,942.779 1457.31,938.004 
  1458.67,933.238 1460.03,928.482 1461.39,923.737 1462.75,919.004 1464.11,914.285 1465.46,909.579 1466.82,904.889 1468.18,900.216 1469.54,895.56 1470.9,890.922 
  1472.26,886.304 1473.61,881.707 1474.97,877.132 1476.33,872.58 1477.69,868.051 1479.05,863.548 1480.41,859.071 1481.76,854.621 1483.12,850.2 1484.48,845.808 
  1485.84,841.447 1487.2,837.117 1488.56,832.82 1489.92,828.557 1491.27,824.329 1492.63,820.137 1493.99,815.981 1495.35,811.865 1496.71,807.787 1498.07,803.749 
  1499.42,799.753 1500.78,795.8 1502.14,791.889 1503.5,788.024 1504.86,784.204 1506.22,780.43 1507.57,776.704 1508.93,773.026 1510.29,769.398 1511.65,765.821 
  1513.01,762.295 1514.37,758.821 1515.72,755.401 1517.08,752.036 1518.44,748.726 1519.8,745.472 1521.16,742.275 1522.52,739.136 1523.88,736.056 1525.23,733.036 
  1526.59,730.077 1527.95,727.179 1529.31,724.343 1530.67,721.571 1532.03,718.863 1533.38,716.219 1534.74,713.641 1536.1,711.129 1537.46,708.683 1538.82,706.306 
  1540.18,703.997 1541.53,701.757 1542.89,699.586 1544.25,697.486 1545.61,695.456 1546.97,693.499 1548.33,691.613 1549.69,689.8 1551.04,688.06 1552.4,686.393 
  1553.76,684.801 1555.12,683.284 1556.48,681.841 1557.84,680.474 1559.19,679.183 1560.55,677.969 1561.91,676.83 1563.27,675.769 1564.63,674.786 1565.99,673.88 
  1567.34,673.051 1568.7,672.301 1570.06,671.629 1571.42,671.036 1572.78,670.522 1574.14,670.086 1575.49,669.73 1576.85,669.452 1578.21,669.254 1579.57,669.135 
  1580.93,669.095 1582.29,669.135 1583.65,669.254 1585,669.452 1586.36,669.73 1587.72,670.086 1589.08,670.522 1590.44,671.036 1591.8,671.629 1593.15,672.301 
  1594.51,673.051 1595.87,673.88 1597.23,674.786 1598.59,675.769 1599.95,676.83 1601.3,677.969 1602.66,679.183 1604.02,680.474 1605.38,681.841 1606.74,683.284 
  1608.1,684.801 1609.46,686.393 1610.81,688.06 1612.17,689.8 1613.53,691.613 1614.89,693.499 1616.25,695.456 1617.61,697.486 1618.96,699.586 1620.32,701.757 
  1621.68,703.997 1623.04,706.306 1624.4,708.683 1625.76,711.129 1627.11,713.641 1628.47,716.219 1629.83,718.863 1631.19,721.571 1632.55,724.343 1633.91,727.179 
  1635.26,730.077 1636.62,733.036 1637.98,736.056 1639.34,739.136 1640.7,742.275 1642.06,745.472 1643.42,748.726 1644.77,752.036 1646.13,755.401 1647.49,758.821 
  1648.85,762.295 1650.21,765.821 1651.57,769.398 1652.92,773.026 1654.28,776.704 1655.64,780.43 1657,784.204 1658.36,788.024 1659.72,791.889 1661.07,795.8 
  1662.43,799.753 1663.79,803.749 1665.15,807.787 1666.51,811.865 1667.87,815.981 1669.22,820.137 1670.58,824.329 1671.94,828.557 1673.3,832.82 1674.66,837.117 
  1676.02,841.447 1677.38,845.808 1678.73,850.2 1680.09,854.621 1681.45,859.071 1682.81,863.548 1684.17,868.051 1685.53,872.58 1686.88,877.132 1688.24,881.707 
  1689.6,886.304 1690.96,890.922 1692.32,895.56 1693.68,900.216 1695.03,904.889 1696.39,909.579 1697.75,914.285 1699.11,919.004 1700.47,923.737 1701.83,928.482 
  1703.19,933.238 1704.54,938.004 1705.9,942.779 1707.26,947.562 1708.62,952.352 1709.98,957.148 1711.34,961.949 1712.69,966.754 1714.05,971.561 1715.41,976.371 
  1716.77,981.182 1718.13,985.992 1719.49,990.802 1720.84,995.61 1722.2,1000.41 1723.56,1005.22 1724.92,1010.01 1726.28,1014.8 1727.64,1019.59 1728.99,1024.36 
  1730.35,1029.13 1731.71,1033.89 1733.07,1038.64 1734.43,1043.38 1735.79,1048.11 1737.15,1052.82 1738.5,1057.53 1739.86,1062.21 1741.22,1066.89 1742.58,1071.54 
  1743.94,1076.19 1745.3,1080.81 1746.65,1085.42 1748.01,1090 1749.37,1094.57 1750.73,1099.12 1752.09,1103.65 1753.45,1108.16 1754.8,1112.65 1756.16,1117.11 
  1757.52,1121.55 1758.88,1125.97 1760.24,1130.36 1761.6,1134.73 1762.95,1139.07 1764.31,1143.39 1765.67,1147.68 1767.03,1151.95 1768.39,1156.19 1769.75,1160.4 
  1771.11,1164.58 1772.46,1168.73 1773.82,1172.85 1775.18,1176.95 1776.54,1181.01 1777.9,1185.05 1779.26,1189.05 1780.61,1193.03 1781.97,1196.97 1783.33,1200.88 
  1784.69,1204.76 1786.05,1208.6 1787.41,1212.42 1788.76,1216.2 1790.12,1219.95 1791.48,1223.66 1792.84,1227.34 1794.2,1230.99 1795.56,1234.61 1796.92,1238.19 
  1798.27,1241.73 1799.63,1245.24 1800.99,1248.72 1802.35,1252.16 1803.71,1255.57 1805.07,1258.94 1806.42,1262.28 1807.78,1265.58 1809.14,1268.85 1810.5,1272.08 
  1811.86,1275.28 1813.22,1278.44 1814.57,1281.56 1815.93,1284.65 1817.29,1287.71 1818.65,1290.73 1820.01,1293.71 1821.37,1296.66 1822.72,1299.57 1824.08,1302.45 
  1825.44,1305.29 1826.8,1308.1 1828.16,1310.87 1829.52,1313.61 1830.88,1316.32 1832.23,1318.98 1833.59,1321.62 1834.95,1324.22 1836.31,1326.78 1837.67,1329.31 
  1839.03,1331.81 1840.38,1334.27 1841.74,1336.69 1843.1,1339.09 1844.46,1341.45 1845.82,1343.78 1847.18,1346.07 1848.53,1348.33 1849.89,1350.56 1851.25,1352.75 
  1852.61,1354.92 1853.97,1357.05 1855.33,1359.15 1856.68,1361.21 1858.04,1363.25 1859.4,1365.25 1860.76,1367.23 1862.12,1369.17 1863.48,1371.08 1864.84,1372.96 
  1866.19,1374.81 1867.55,1376.64 1868.91,1378.43 1870.27,1380.19 1871.63,1381.92 1872.99,1383.63 1874.34,1385.3 1875.7,1386.95 1877.06,1388.57 1878.42,1390.17 
  1879.78,1391.73 1881.14,1393.27 1882.49,1394.78 1883.85,1396.27 1885.21,1397.72 1886.57,1399.16 1887.93,1400.56 1889.29,1401.95 1890.65,1403.3 1892,1404.63 
  1893.36,1405.94 1894.72,1407.22 1896.08,1408.48 1897.44,1409.72 1898.8,1410.93 1900.15,1412.12 1901.51,1413.29 1902.87,1414.43 1904.23,1415.56 1905.59,1416.66 
  1906.95,1417.74 1908.3,1418.79 1909.66,1419.83 1911.02,1420.85 1912.38,1421.84 1913.74,1422.82 1915.1,1423.78 1916.45,1424.71 1917.81,1425.63 1919.17,1426.53 
  1920.53,1427.41 1921.89,1428.27 1923.25,1429.12 1924.61,1429.94 1925.96,1430.75 1927.32,1431.54 1928.68,1432.32 1930.04,1433.08 1931.4,1433.82 1932.76,1434.55 
  1934.11,1435.26 1935.47,1435.95 1936.83,1436.63 1938.19,1437.29 1939.55,1437.94 1940.91,1438.58 1942.26,1439.2 1943.62,1439.8 1944.98,1440.4 1946.34,1440.98 
  1947.7,1441.54 1949.06,1442.09 1950.41,1442.64 1951.77,1443.16 1953.13,1443.68 1954.49,1444.18 1955.85,1444.67 1957.21,1445.15 1958.57,1445.62 1959.92,1446.08 
  1961.28,1446.52 1962.64,1446.96 1964,1447.38 1965.36,1447.8 1966.72,1448.2 1968.07,1448.6 1969.43,1448.98 1970.79,1449.36 1972.15,1449.72 1973.51,1450.08 
  1974.87,1450.43 1976.22,1450.76 1977.58,1451.1 1978.94,1451.42 1980.3,1451.73 1981.66,1452.04 1983.02,1452.33 1984.38,1452.62 1985.73,1452.91 1987.09,1453.18 
  1988.45,1453.45 1989.81,1453.71 1991.17,1453.96 1992.53,1454.21 1993.88,1454.45 1995.24,1454.69 1996.6,1454.91 1997.96,1455.14 1999.32,1455.35 2000.68,1455.56 
  2002.03,1455.77 2003.39,1455.96 2004.75,1456.16 2006.11,1456.35 2007.47,1456.53 2008.83,1456.71 2010.18,1456.88 2011.54,1457.05 2012.9,1457.21 2014.26,1457.37 
  2015.62,1457.52 2016.98,1457.67 2018.34,1457.82 2019.69,1457.96 2021.05,1458.09 2022.41,1458.23 2023.77,1458.36 2025.13,1458.48 2026.49,1458.6 2027.84,1458.72 
  2029.2,1458.84 2030.56,1458.95 2031.92,1459.06 2033.28,1459.16 2034.64,1459.26 2035.99,1459.36 2037.35,1459.46 2038.71,1459.55 2040.07,1459.64 2041.43,1459.73 
  2042.79,1459.81 2044.14,1459.89 2045.5,1459.97 2046.86,1460.05 2048.22,1460.12 2049.58,1460.2 2050.94,1460.27 2052.3,1460.33 2053.65,1460.4 2055.01,1460.46 
  2056.37,1460.53 2057.73,1460.59 2059.09,1460.64 2060.45,1460.7 2061.8,1460.75 2063.16,1460.81 2064.52,1460.86 2065.88,1460.91 2067.24,1460.95 2068.6,1461 
  2069.95,1461.04 2071.31,1461.09 2072.67,1461.13 2074.03,1461.17 2075.39,1461.21 2076.75,1461.25 2078.11,1461.28 2079.46,1461.32 2080.82,1461.35 2082.18,1461.38 
  2083.54,1461.42 2084.9,1461.45 2086.26,1461.48 2087.61,1461.51 2088.97,1461.53 2090.33,1461.56 2091.69,1461.59 2093.05,1461.61 2094.41,1461.63 2095.76,1461.66 
  2097.12,1461.68 2098.48,1461.7 2099.84,1461.72 2101.2,1461.74 2102.56,1461.76 2103.91,1461.78 2105.27,1461.8 2106.63,1461.82 2107.99,1461.83 2109.35,1461.85 
  2110.71,1461.87 2112.07,1461.88 2113.42,1461.9 2114.78,1461.91 2116.14,1461.92 2117.5,1461.94 2118.86,1461.95 2120.22,1461.96 2121.57,1461.97 2122.93,1461.98 
  2124.29,1461.99 2125.65,1462.01 2127.01,1462.02 2128.37,1462.02 2129.72,1462.03 2131.08,1462.04 2132.44,1462.05 2133.8,1462.06 2135.16,1462.07 2136.52,1462.08 
  2137.88,1462.08 2139.23,1462.09 2140.59,1462.1 2141.95,1462.1 2143.31,1462.11 2144.67,1462.12 2146.03,1462.12 2147.38,1462.13 2148.74,1462.13 2150.1,1462.14 
  2151.46,1462.14 2152.82,1462.15 2154.18,1462.15 2155.53,1462.16 2156.89,1462.16 2158.25,1462.17 2159.61,1462.17 2160.97,1462.17 2162.33,1462.18 2163.68,1462.18 
  2165.04,1462.18 2166.4,1462.19 2167.76,1462.19 2169.12,1462.19 2170.48,1462.2 2171.84,1462.2 2173.19,1462.2 2174.55,1462.2 2175.91,1462.21 2177.27,1462.21 
  2178.63,1462.21 2179.99,1462.21 2181.34,1462.22 2182.7,1462.22 2184.06,1462.22 2185.42,1462.22 2186.78,1462.22 2188.14,1462.22 2189.49,1462.23 2190.85,1462.23 
  2192.21,1462.23 2193.57,1462.23 2194.93,1462.23 2196.29,1462.23 2197.64,1462.23 2199,1462.24 2200.36,1462.24 2201.72,1462.24 2203.08,1462.24 2204.44,1462.24 
  2205.8,1462.24 2207.15,1462.24 2208.51,1462.24 2209.87,1462.24 2211.23,1462.24 2212.59,1462.24 2213.95,1462.25 2215.3,1462.25 2216.66,1462.25 2218.02,1462.25 
  2219.38,1462.25 2220.74,1462.25 2222.1,1462.25 2223.45,1462.25 2224.81,1462.25 2226.17,1462.25 2227.53,1462.25 2228.89,1462.25 2230.25,1462.25 2231.61,1462.25 
  2232.96,1462.25 2234.32,1462.25 2235.68,1462.25 2237.04,1462.25 2238.4,1462.25 2239.76,1462.25 2241.11,1462.25 2242.47,1462.26 2243.83,1462.26 2245.19,1462.26 
  2246.55,1462.26 2247.91,1462.26 2249.26,1462.26 2250.62,1462.26 2251.98,1462.26 2253.34,1462.26 2254.7,1462.26 2256.06,1462.26 2257.41,1462.26 2258.77,1462.26 
  2260.13,1462.26 
  "/>
<polyline clip-path="url(#clip2303)" style="stroke:#cc3333; stroke-width:60; stroke-opacity:1; fill:none" points="
  222.522,1462.26 223.881,1462.26 225.239,1462.26 226.598,1462.26 227.956,1462.26 229.314,1462.26 230.673,1462.26 232.031,1462.26 233.39,1462.26 234.748,1462.26 
  236.106,1462.26 237.465,1462.26 238.823,1462.26 240.182,1462.26 241.54,1462.26 242.898,1462.26 244.257,1462.26 245.615,1462.26 246.974,1462.26 248.332,1462.26 
  249.69,1462.26 251.049,1462.26 252.407,1462.26 253.766,1462.26 255.124,1462.26 256.482,1462.26 257.841,1462.26 259.199,1462.26 260.558,1462.26 261.916,1462.26 
  263.275,1462.26 264.633,1462.26 265.991,1462.26 267.35,1462.26 268.708,1462.26 270.067,1462.26 271.425,1462.26 272.783,1462.26 274.142,1462.26 275.5,1462.26 
  276.859,1462.26 278.217,1462.26 279.575,1462.26 280.934,1462.26 282.292,1462.26 283.651,1462.26 285.009,1462.26 286.367,1462.26 287.726,1462.26 289.084,1462.26 
  290.443,1462.26 291.801,1462.26 293.159,1462.26 294.518,1462.26 295.876,1462.26 297.235,1462.26 298.593,1462.26 299.951,1462.26 301.31,1462.26 302.668,1462.26 
  304.027,1462.26 305.385,1462.26 306.743,1462.26 308.102,1462.26 309.46,1462.26 310.819,1462.26 312.177,1462.26 313.536,1462.26 314.894,1462.26 316.252,1462.26 
  317.611,1462.26 318.969,1462.26 320.328,1462.26 321.686,1462.26 323.044,1462.26 324.403,1462.26 325.761,1462.26 327.12,1462.26 328.478,1462.26 329.836,1462.26 
  331.195,1462.26 332.553,1462.26 333.912,1462.26 335.27,1462.26 336.628,1462.26 337.987,1462.26 339.345,1462.26 340.704,1462.26 342.062,1462.26 343.42,1462.26 
  344.779,1462.26 346.137,1462.26 347.496,1462.26 348.854,1462.26 350.212,1462.26 351.571,1462.26 352.929,1462.26 354.288,1462.26 355.646,1462.26 357.005,1462.26 
  358.363,1462.26 359.721,1462.26 361.08,1462.26 362.438,1462.26 363.797,1462.26 365.155,1462.26 366.513,1462.26 367.872,1462.26 369.23,1462.26 370.589,1462.26 
  371.947,1462.26 373.305,1462.26 374.664,1462.26 376.022,1462.26 377.381,1462.26 378.739,1462.26 380.097,1462.26 381.456,1462.26 382.814,1462.26 384.173,1462.26 
  385.531,1462.26 386.889,1462.26 388.248,1462.26 389.606,1462.26 390.965,1462.26 392.323,1462.26 393.681,1462.26 395.04,1462.26 396.398,1462.26 397.757,1462.26 
  399.115,1462.26 400.474,1462.26 401.832,1462.26 403.19,1462.26 404.549,1462.26 405.907,1462.26 407.266,1462.26 408.624,1462.26 409.982,1462.26 411.341,1462.26 
  412.699,1462.26 414.058,1462.26 415.416,1462.26 416.774,1462.26 418.133,1462.26 419.491,1462.26 420.85,1462.26 422.208,1462.26 423.566,1462.26 424.925,1462.26 
  426.283,1462.26 427.642,1462.26 429,1462.26 430.358,1462.26 431.717,1462.26 433.075,1462.26 434.434,1462.26 435.792,1462.26 437.15,1462.26 438.509,1462.26 
  439.867,1462.26 441.226,1462.26 442.584,1462.26 443.943,1462.26 445.301,1462.26 446.659,1462.26 448.018,1462.26 449.376,1462.26 450.735,1462.26 452.093,1462.26 
  453.451,1462.26 454.81,1462.26 456.168,1462.26 457.527,1462.26 458.885,1462.26 460.243,1462.26 461.602,1462.26 462.96,1462.26 464.319,1462.26 465.677,1462.26 
  467.035,1462.26 468.394,1462.26 469.752,1462.26 471.111,1462.26 472.469,1462.26 473.827,1462.26 475.186,1462.26 476.544,1462.26 477.903,1462.26 479.261,1462.26 
  480.619,1462.26 481.978,1462.26 483.336,1462.26 484.695,1462.26 486.053,1462.26 487.412,1462.26 488.77,1462.26 490.128,1462.26 491.487,1462.26 492.845,1462.26 
  494.204,1462.26 495.562,1462.26 496.92,1462.26 498.279,1462.26 499.637,1462.26 500.996,1462.26 502.354,1462.26 503.712,1462.26 505.071,1462.26 506.429,1462.26 
  507.788,1462.26 509.146,1462.26 510.504,1462.26 511.863,1462.26 513.221,1462.26 514.58,1462.26 515.938,1462.26 517.296,1462.26 518.655,1462.26 520.013,1462.26 
  521.372,1462.26 522.73,1462.26 524.088,1462.26 525.447,1462.26 526.805,1462.26 528.164,1462.26 529.522,1462.26 530.881,1462.26 532.239,1462.26 533.597,1462.26 
  534.956,1462.26 536.314,1462.26 537.673,1462.26 539.031,1462.26 540.389,1462.26 541.748,1462.26 543.106,1462.26 544.465,1462.26 545.823,1462.26 547.181,1462.26 
  548.54,1462.26 549.898,1462.26 551.257,1462.26 552.615,1462.26 553.973,1462.26 555.332,1462.26 556.69,1462.26 558.049,1462.26 559.407,1462.26 560.765,1462.26 
  562.124,1462.26 563.482,1462.26 564.841,1462.26 566.199,1462.26 567.557,1462.26 568.916,1462.26 570.274,1462.26 571.633,1462.26 572.991,1462.26 574.35,1462.26 
  575.708,1462.26 577.066,1462.26 578.425,1462.26 579.783,1462.26 581.142,1462.26 582.5,1462.26 583.858,1462.26 585.217,1462.26 586.575,1462.26 587.934,1462.26 
  589.292,1462.26 590.65,1462.26 592.009,1462.26 593.367,1462.26 594.726,1462.26 596.084,1462.26 597.442,1462.26 598.801,1462.26 600.159,1462.26 601.518,1462.26 
  602.876,1462.26 604.234,1462.26 605.593,1462.26 606.951,1462.26 608.31,1462.26 609.668,1462.26 611.026,1462.26 612.385,1462.26 613.743,1462.26 615.102,1462.26 
  616.46,1462.26 617.819,1462.26 619.177,1462.26 620.535,1462.26 621.894,1462.26 623.252,1462.26 624.611,1462.26 625.969,1462.26 627.327,1462.26 628.686,1462.26 
  630.044,1462.26 631.403,1462.26 632.761,1462.26 634.119,1462.26 635.478,1462.26 636.836,1462.26 638.195,1462.26 639.553,1462.26 640.911,1462.26 642.27,1462.26 
  643.628,1462.26 644.987,1462.26 646.345,1462.26 647.703,1462.26 649.062,1462.26 650.42,1462.26 651.779,1462.26 653.137,1462.26 654.495,1462.26 655.854,1462.26 
  657.212,1462.26 658.571,1462.26 659.929,1462.26 661.288,1462.26 662.646,1462.26 664.004,1462.26 665.363,1462.26 666.721,1462.26 668.08,1462.26 669.438,1462.26 
  670.796,1462.26 672.155,1462.26 673.513,1462.26 674.872,1462.26 676.23,1462.26 677.588,1462.26 678.947,1462.26 680.305,1462.26 681.664,1462.26 683.022,1462.26 
  684.38,1462.26 685.739,1462.26 687.097,1462.26 688.456,1462.26 689.814,1462.26 691.172,1462.26 692.531,1462.26 693.889,1462.26 695.248,1462.26 696.606,1462.26 
  697.964,1462.26 699.323,1462.26 700.681,1462.26 702.04,1462.26 703.398,1462.26 704.757,1462.26 706.115,1462.26 707.473,1462.26 708.832,1462.26 710.19,1462.26 
  711.549,1462.26 712.907,1462.26 714.265,1462.26 715.624,1462.26 716.982,1462.26 718.341,1462.26 719.699,1462.26 721.057,1462.26 722.416,1462.26 723.774,1462.26 
  725.133,1462.26 726.491,1462.26 727.849,1462.26 729.208,1462.26 730.566,1462.26 731.925,1462.26 733.283,1462.26 734.641,1462.26 736,1462.26 737.358,1462.26 
  738.717,1462.26 740.075,1462.26 741.433,1462.26 742.792,1462.26 744.15,1462.26 745.509,1462.26 746.867,1462.26 748.226,1462.26 749.584,1462.26 750.942,1462.26 
  752.301,1462.26 753.659,1462.26 755.018,1462.26 756.376,1462.26 757.734,1462.26 759.093,1462.26 760.451,1462.26 761.81,1462.26 763.168,1462.26 764.526,1462.26 
  765.885,1462.26 767.243,1462.26 768.602,1462.26 769.96,1462.26 771.318,1462.26 772.677,1462.26 774.035,1462.26 775.394,1462.26 776.752,1462.26 778.11,1462.26 
  779.469,1462.26 780.827,1462.26 782.186,1462.26 783.544,1462.26 784.902,1462.26 786.261,1462.26 787.619,1462.26 788.978,1462.26 790.336,1462.26 791.694,1462.26 
  793.053,1462.26 794.411,1462.26 795.77,1462.26 797.128,1462.26 798.487,1462.26 799.845,1462.26 801.203,1462.26 802.562,1462.26 803.92,1462.26 805.279,1462.26 
  806.637,1462.26 807.995,1462.26 809.354,1462.26 810.712,1462.26 812.071,1462.26 813.429,1462.26 814.787,1462.26 816.146,1462.26 817.504,1462.26 818.863,1462.26 
  820.221,1462.26 821.579,1462.26 822.938,1462.26 824.296,1462.26 825.655,1462.26 827.013,1462.26 828.371,1462.26 829.73,1462.26 831.088,1462.26 832.447,1462.26 
  833.805,1462.26 835.163,1462.26 836.522,1462.26 837.88,1462.26 839.239,1462.26 840.597,1462.26 841.956,1462.26 843.314,1462.26 844.672,1462.26 846.031,1462.26 
  847.389,1462.26 848.748,1462.26 850.106,1462.26 851.464,1462.26 852.823,1462.26 854.181,1462.26 855.54,1462.26 856.898,1462.26 858.256,1462.26 859.615,1462.26 
  860.973,1462.26 862.332,1462.26 863.69,1462.26 865.048,1462.26 866.407,1462.26 867.765,1462.26 869.124,1462.26 870.482,1462.26 871.84,1462.26 873.199,1462.26 
  874.557,1462.26 875.916,1462.26 877.274,1462.26 878.632,1462.26 879.991,1462.26 881.349,1462.26 882.708,1462.26 884.066,1462.26 885.425,1462.26 886.783,1462.26 
  888.141,1462.26 889.5,1462.26 890.858,1462.26 892.217,1462.26 893.575,1462.26 894.933,1462.26 896.292,1462.26 897.65,1462.26 899.009,1462.26 900.367,1462.26 
  901.725,1462.26 903.084,1462.26 904.442,1462.26 905.801,1462.26 907.159,1462.26 908.517,1462.26 909.876,1462.26 911.234,1462.26 912.593,1462.26 913.951,1462.26 
  915.309,1462.26 916.668,1462.26 918.026,1462.26 919.385,1462.26 920.743,1462.26 922.101,1462.26 923.46,1462.26 924.818,1462.26 926.177,1462.26 927.535,1462.26 
  928.894,1462.26 930.252,1462.26 931.61,1462.26 932.969,1462.26 934.327,1462.26 935.686,1462.26 937.044,1462.26 938.402,1462.26 939.761,1462.26 941.119,1462.26 
  942.478,1462.26 943.836,1462.26 945.194,1462.26 946.553,1462.26 947.911,1462.26 949.27,1462.26 950.628,1462.26 951.986,1462.26 953.345,1462.26 954.703,1462.26 
  956.062,1462.26 957.42,1462.26 958.778,1462.26 960.137,1462.26 961.495,1462.26 962.854,1462.26 964.212,1462.26 965.57,1462.26 966.929,1462.26 968.287,1462.26 
  969.646,1462.26 971.004,1462.26 972.363,1462.26 973.721,1462.26 975.079,1462.26 976.438,1462.26 977.796,1462.26 979.155,1462.26 980.513,1462.26 981.871,1462.26 
  983.23,1462.26 984.588,1462.26 985.947,1462.26 987.305,1462.26 988.663,1462.26 990.022,1462.26 991.38,1462.26 992.739,1462.26 994.097,1462.26 995.455,1462.26 
  996.814,1462.26 998.172,1462.26 999.531,1462.26 1000.89,1462.26 1002.25,1462.26 1003.61,1462.26 1004.96,1462.26 1006.32,1462.26 1007.68,1462.26 1009.04,1462.26 
  1010.4,1462.26 1011.76,1462.26 1013.11,1462.26 1014.47,1462.26 1015.83,1462.26 1017.19,1462.26 1018.55,1462.26 1019.91,1462.26 1021.27,1462.26 1022.62,1462.26 
  1023.98,1462.26 1025.34,1462.26 1026.7,1462.26 1028.06,1462.26 1029.42,1462.26 1030.77,1462.26 1032.13,1462.26 1033.49,1462.26 1034.85,1462.26 1036.21,1462.26 
  1037.57,1462.26 1038.92,1462.26 1040.28,1462.26 1041.64,1462.26 1043,1462.26 1044.36,1462.26 1045.72,1462.26 1047.07,1462.26 1048.43,1462.26 1049.79,1462.26 
  1051.15,1462.26 1052.51,1462.26 1053.87,1462.26 1055.23,1462.26 1056.58,1462.26 1057.94,1462.26 1059.3,1462.26 1060.66,1462.26 1062.02,1462.26 1063.38,1462.26 
  1064.73,1462.26 1066.09,1462.26 1067.45,1462.26 1068.81,1462.26 1070.17,1462.26 1071.53,1462.26 1072.88,1462.26 1074.24,1462.26 1075.6,1462.26 1076.96,1462.26 
  1078.32,1462.26 1079.68,1462.26 1081.04,1462.26 1082.39,1462.26 1083.75,1462.26 1085.11,1462.26 1086.47,1462.26 1087.83,1462.26 1089.19,1462.26 1090.54,1462.26 
  1091.9,1462.26 1093.26,1462.26 1094.62,1462.26 1095.98,1462.26 1097.34,1462.26 1098.69,1462.26 1100.05,1462.26 1101.41,1462.26 1102.77,1462.26 1104.13,1462.26 
  1105.49,1462.26 1106.84,1462.26 1108.2,1462.26 1109.56,1462.26 1110.92,1462.26 1112.28,1462.26 1113.64,1462.26 1115,1462.26 1116.35,1462.26 1117.71,1462.26 
  1119.07,1462.26 1120.43,1462.26 1121.79,1462.26 1123.15,1462.26 1124.5,1462.26 1125.86,1462.26 1127.22,1462.26 1128.58,1462.26 1129.94,1462.26 1131.3,1462.26 
  1132.65,1462.26 1134.01,1462.26 1135.37,1462.26 1136.73,1462.26 1138.09,1462.26 1139.45,1462.26 1140.8,1462.26 1142.16,1462.26 1143.52,1462.26 1144.88,1462.26 
  1146.24,1462.26 1147.6,1462.26 1148.96,1462.26 1150.31,1462.26 1151.67,1462.26 1153.03,1462.26 1154.39,1462.26 1155.75,1462.26 1157.11,1462.26 1158.46,1462.26 
  1159.82,1462.26 1161.18,1462.26 1162.54,1462.26 1163.9,1462.26 1165.26,1462.26 1166.61,1462.26 1167.97,1462.26 1169.33,1462.26 1170.69,1462.26 1172.05,1462.26 
  1173.41,1462.26 1174.77,1462.26 1176.12,1462.26 1177.48,1462.26 1178.84,1462.26 1180.2,1462.26 1181.56,1462.26 1182.92,1462.26 1184.27,1462.26 1185.63,1462.26 
  1186.99,1462.26 1188.35,1462.26 1189.71,1462.26 1191.07,1462.26 1192.42,1462.26 1193.78,1462.26 1195.14,1462.26 1196.5,1462.26 1197.86,1462.26 1199.22,1462.26 
  1200.57,1462.26 1201.93,1462.26 1203.29,1462.26 1204.65,1462.26 1206.01,1462.26 1207.37,1462.26 1208.73,1462.26 1210.08,1462.26 1211.44,1462.26 1212.8,1462.26 
  1214.16,1462.26 1215.52,1462.26 1216.88,1462.26 1218.23,1462.26 1219.59,1462.26 1220.95,1462.26 1222.31,1462.26 1223.67,1462.26 1225.03,1462.26 1226.38,1462.26 
  1227.74,1462.26 1229.1,1462.26 1230.46,1462.26 1231.82,1462.26 1233.18,1462.26 1234.53,1462.26 1235.89,1462.26 1237.25,1462.26 1238.61,1462.26 1239.97,1462.26 
  1241.33,1462.26 1242.69,1462.26 1244.04,1462.26 1245.4,1462.26 1246.76,1462.26 1248.12,1462.26 1249.48,1462.26 1250.84,1462.26 1252.19,1462.26 1253.55,1462.26 
  1254.91,1462.26 1256.27,1462.26 1257.63,1462.26 1258.99,1462.26 1260.34,1462.26 1261.7,1462.26 1263.06,1462.26 1264.42,1462.26 1265.78,1462.26 1267.14,1462.26 
  1268.5,1462.26 1269.85,1462.26 1271.21,1462.26 1272.57,1462.26 1273.93,1462.26 1275.29,1462.26 1276.65,1462.26 1278,1462.26 1279.36,1462.26 1280.72,1462.26 
  1282.08,1462.26 1283.44,1462.26 1284.8,1462.26 1286.15,1462.26 1287.51,1462.26 1288.87,1462.26 1290.23,1462.26 1291.59,1462.26 1292.95,1462.26 1294.3,1462.26 
  1295.66,1462.26 1297.02,1462.26 1298.38,1462.26 1299.74,1462.26 1301.1,1462.26 1302.46,1462.26 1303.81,1462.26 1305.17,1462.26 1306.53,1462.26 1307.89,1462.26 
  1309.25,1462.26 1310.61,1462.26 1311.96,1462.26 1313.32,1462.26 1314.68,1462.26 1316.04,1462.26 1317.4,1462.26 1318.76,1462.26 1320.11,1462.26 1321.47,1462.26 
  1322.83,1462.26 1324.19,1462.26 1325.55,1462.26 1326.91,1462.26 1328.26,1462.26 1329.62,1462.26 1330.98,1462.26 1332.34,1462.26 1333.7,1462.26 1335.06,1462.26 
  1336.42,1462.26 1337.77,1462.26 1339.13,1462.26 1340.49,1462.26 1341.85,1462.26 1343.21,1462.26 1344.57,1462.26 1345.92,1462.26 1347.28,1462.26 1348.64,1462.26 
  1350,1462.26 1351.36,1462.26 1352.72,1462.26 1354.07,1462.26 1355.43,1462.26 1356.79,1462.26 1358.15,1462.26 1359.51,1462.26 1360.87,1462.26 1362.23,1462.26 
  1363.58,1462.26 1364.94,1462.26 1366.3,1462.26 1367.66,1462.26 1369.02,1462.26 1370.38,1462.26 1371.73,1462.26 1373.09,1462.26 1374.45,1462.26 1375.81,1462.26 
  1377.17,1462.26 1378.53,1462.26 1379.88,1462.26 1381.24,1462.26 1382.6,1462.26 1383.96,1462.26 1385.32,1462.26 1386.68,1462.26 1388.03,1462.26 1389.39,1462.26 
  1390.75,1462.26 1392.11,1462.26 1393.47,1462.26 1394.83,1462.26 1396.19,1462.26 1397.54,1462.26 1398.9,1462.26 1400.26,1462.26 1401.62,1462.26 1402.98,1462.26 
  1404.34,1462.26 1405.69,1462.26 1407.05,1462.26 1408.41,1462.26 1409.77,1462.26 1411.13,1462.26 1412.49,1462.26 1413.84,1462.26 1415.2,1462.26 1416.56,1462.26 
  1417.92,1462.26 1419.28,1462.26 1420.64,1462.26 1421.99,1462.26 1423.35,1462.26 1424.71,1462.26 1426.07,1462.26 1427.43,1462.26 1428.79,1462.26 1430.15,1462.26 
  1431.5,1462.26 1432.86,1462.26 1434.22,1462.26 1435.58,1462.26 1436.94,1462.26 1438.3,1462.26 1439.65,1462.26 1441.01,1462.26 1442.37,1462.26 1443.73,1462.26 
  1445.09,1462.26 1446.45,1462.25 1447.8,1462.25 1449.16,1462.25 1450.52,1462.25 1451.88,1462.25 1453.24,1462.25 1454.6,1462.25 1455.96,1462.25 1457.31,1462.25 
  1458.67,1462.25 1460.03,1462.25 1461.39,1462.25 1462.75,1462.25 1464.11,1462.25 1465.46,1462.25 1466.82,1462.24 1468.18,1462.24 1469.54,1462.24 1470.9,1462.24 
  1472.26,1462.24 1473.61,1462.24 1474.97,1462.24 1476.33,1462.24 1477.69,1462.23 1479.05,1462.23 1480.41,1462.23 1481.76,1462.23 1483.12,1462.23 1484.48,1462.22 
  1485.84,1462.22 1487.2,1462.22 1488.56,1462.22 1489.92,1462.21 1491.27,1462.21 1492.63,1462.21 1493.99,1462.2 1495.35,1462.2 1496.71,1462.19 1498.07,1462.19 
  1499.42,1462.19 1500.78,1462.18 1502.14,1462.18 1503.5,1462.17 1504.86,1462.16 1506.22,1462.16 1507.57,1462.15 1508.93,1462.15 1510.29,1462.14 1511.65,1462.13 
  1513.01,1462.12 1514.37,1462.11 1515.72,1462.1 1517.08,1462.1 1518.44,1462.08 1519.8,1462.07 1521.16,1462.06 1522.52,1462.05 1523.88,1462.04 1525.23,1462.03 
  1526.59,1462.01 1527.95,1462 1529.31,1461.98 1530.67,1461.96 1532.03,1461.95 1533.38,1461.93 1534.74,1461.91 1536.1,1461.89 1537.46,1461.87 1538.82,1461.84 
  1540.18,1461.82 1541.53,1461.79 1542.89,1461.77 1544.25,1461.74 1545.61,1461.71 1546.97,1461.68 1548.33,1461.64 1549.69,1461.61 1551.04,1461.57 1552.4,1461.54 
  1553.76,1461.5 1555.12,1461.45 1556.48,1461.41 1557.84,1461.36 1559.19,1461.31 1560.55,1461.26 1561.91,1461.21 1563.27,1461.15 1564.63,1461.09 1565.99,1461.03 
  1567.34,1460.96 1568.7,1460.89 1570.06,1460.82 1571.42,1460.74 1572.78,1460.66 1574.14,1460.58 1575.49,1460.49 1576.85,1460.4 1578.21,1460.3 1579.57,1460.2 
  1580.93,1460.1 1582.29,1459.98 1583.65,1459.87 1585,1459.75 1586.36,1459.62 1587.72,1459.49 1589.08,1459.35 1590.44,1459.2 1591.8,1459.05 1593.15,1458.89 
  1594.51,1458.73 1595.87,1458.55 1597.23,1458.37 1598.59,1458.18 1599.95,1457.98 1601.3,1457.78 1602.66,1457.56 1604.02,1457.34 1605.38,1457.1 1606.74,1456.86 
  1608.1,1456.61 1609.46,1456.34 1610.81,1456.06 1612.17,1455.77 1613.53,1455.47 1614.89,1455.16 1616.25,1454.83 1617.61,1454.5 1618.96,1454.14 1620.32,1453.77 
  1621.68,1453.39 1623.04,1452.99 1624.4,1452.58 1625.76,1452.15 1627.11,1451.7 1628.47,1451.24 1629.83,1450.75 1631.19,1450.25 1632.55,1449.73 1633.91,1449.19 
  1635.26,1448.63 1636.62,1448.04 1637.98,1447.44 1639.34,1446.81 1640.7,1446.16 1642.06,1445.48 1643.42,1444.78 1644.77,1444.06 1646.13,1443.3 1647.49,1442.52 
  1648.85,1441.72 1650.21,1440.88 1651.57,1440.01 1652.92,1439.12 1654.28,1438.19 1655.64,1437.23 1657,1436.24 1658.36,1435.21 1659.72,1434.15 1661.07,1433.05 
  1662.43,1431.92 1663.79,1430.74 1665.15,1429.53 1666.51,1428.28 1667.87,1426.99 1669.22,1425.66 1670.58,1424.28 1671.94,1422.86 1673.3,1421.4 1674.66,1419.89 
  1676.02,1418.33 1677.38,1416.72 1678.73,1415.07 1680.09,1413.36 1681.45,1411.61 1682.81,1409.8 1684.17,1407.93 1685.53,1406.02 1686.88,1404.04 1688.24,1402.01 
  1689.6,1399.92 1690.96,1397.77 1692.32,1395.56 1693.68,1393.29 1695.03,1390.95 1696.39,1388.55 1697.75,1386.09 1699.11,1383.56 1700.47,1380.96 1701.83,1378.29 
  1703.19,1375.55 1704.54,1372.74 1705.9,1369.85 1707.26,1366.9 1708.62,1363.86 1709.98,1360.76 1711.34,1357.57 1712.69,1354.31 1714.05,1350.96 1715.41,1347.54 
  1716.77,1344.03 1718.13,1340.45 1719.49,1336.77 1720.84,1333.02 1722.2,1329.17 1723.56,1325.24 1724.92,1321.23 1726.28,1317.12 1727.64,1312.92 1728.99,1308.64 
  1730.35,1304.26 1731.71,1299.79 1733.07,1295.23 1734.43,1290.57 1735.79,1285.82 1737.15,1280.97 1738.5,1276.03 1739.86,1270.99 1741.22,1265.85 1742.58,1260.62 
  1743.94,1255.28 1745.3,1249.85 1746.65,1244.32 1748.01,1238.69 1749.37,1232.97 1750.73,1227.14 1752.09,1221.21 1753.45,1215.18 1754.8,1209.05 1756.16,1202.83 
  1757.52,1196.5 1758.88,1190.07 1760.24,1183.54 1761.6,1176.91 1762.95,1170.19 1764.31,1163.36 1765.67,1156.44 1767.03,1149.42 1768.39,1142.3 1769.75,1135.08 
  1771.11,1127.77 1772.46,1120.37 1773.82,1112.86 1775.18,1105.27 1776.54,1097.59 1777.9,1089.81 1779.26,1081.94 1780.61,1073.99 1781.97,1065.95 1783.33,1057.82 
  1784.69,1049.61 1786.05,1041.31 1787.41,1032.94 1788.76,1024.49 1790.12,1015.95 1791.48,1007.35 1792.84,998.669 1794.2,989.918 1795.56,981.098 1796.92,972.212 
  1798.27,963.261 1799.63,954.249 1800.99,945.177 1802.35,936.048 1803.71,926.865 1805.07,917.631 1806.42,908.349 1807.78,899.021 1809.14,889.65 1810.5,880.24 
  1811.86,870.794 1813.22,861.315 1814.57,851.805 1815.93,842.27 1817.29,832.711 1818.65,823.132 1820.01,813.538 1821.37,803.931 1822.72,794.316 1824.08,784.696 
  1825.44,775.075 1826.8,765.456 1828.16,755.844 1829.52,746.243 1830.88,736.656 1832.23,727.088 1833.59,717.543 1834.95,708.025 1836.31,698.538 1837.67,689.086 
  1839.03,679.674 1840.38,670.305 1841.74,660.985 1843.1,651.717 1844.46,642.506 1845.82,633.356 1847.18,624.272 1848.53,615.257 1849.89,606.316 1851.25,597.455 
  1852.61,588.676 1853.97,579.984 1855.33,571.385 1856.68,562.881 1858.04,554.478 1859.4,546.179 1860.76,537.99 1862.12,529.914 1863.48,521.955 1864.84,514.118 
  1866.19,506.407 1867.55,498.826 1868.91,491.378 1870.27,484.069 1871.63,476.903 1872.99,469.882 1874.34,463.01 1875.7,456.293 1877.06,449.733 1878.42,443.334 
  1879.78,437.099 1881.14,431.033 1882.49,425.138 1883.85,419.418 1885.21,413.877 1886.57,408.516 1887.93,403.34 1889.29,398.352 1890.65,393.553 1892,388.948 
  1893.36,384.538 1894.72,380.327 1896.08,376.316 1897.44,372.509 1898.8,368.907 1900.15,365.512 1901.51,362.327 1902.87,359.353 1904.23,356.592 1905.59,354.046 
  1906.95,351.717 1908.3,349.605 1909.66,347.712 1911.02,346.039 1912.38,344.586 1913.74,343.356 1915.1,342.349 1916.45,341.565 1917.81,341.004 1919.17,340.668 
  1920.53,340.556 1921.89,340.668 1923.25,341.004 1924.61,341.565 1925.96,342.349 1927.32,343.356 1928.68,344.586 1930.04,346.039 1931.4,347.712 1932.76,349.605 
  1934.11,351.717 1935.47,354.046 1936.83,356.592 1938.19,359.353 1939.55,362.327 1940.91,365.512 1942.26,368.907 1943.62,372.509 1944.98,376.316 1946.34,380.327 
  1947.7,384.538 1949.06,388.948 1950.41,393.553 1951.77,398.352 1953.13,403.34 1954.49,408.516 1955.85,413.877 1957.21,419.418 1958.57,425.138 1959.92,431.033 
  1961.28,437.099 1962.64,443.334 1964,449.733 1965.36,456.293 1966.72,463.01 1968.07,469.882 1969.43,476.903 1970.79,484.069 1972.15,491.378 1973.51,498.826 
  1974.87,506.407 1976.22,514.118 1977.58,521.955 1978.94,529.914 1980.3,537.99 1981.66,546.179 1983.02,554.478 1984.38,562.881 1985.73,571.385 1987.09,579.984 
  1988.45,588.676 1989.81,597.455 1991.17,606.316 1992.53,615.257 1993.88,624.272 1995.24,633.356 1996.6,642.506 1997.96,651.717 1999.32,660.985 2000.68,670.305 
  2002.03,679.674 2003.39,689.086 2004.75,698.538 2006.11,708.025 2007.47,717.543 2008.83,727.088 2010.18,736.656 2011.54,746.243 2012.9,755.844 2014.26,765.456 
  2015.62,775.075 2016.98,784.696 2018.34,794.316 2019.69,803.931 2021.05,813.538 2022.41,823.132 2023.77,832.711 2025.13,842.27 2026.49,851.805 2027.84,861.315 
  2029.2,870.794 2030.56,880.24 2031.92,889.65 2033.28,899.021 2034.64,908.349 2035.99,917.631 2037.35,926.865 2038.71,936.048 2040.07,945.177 2041.43,954.249 
  2042.79,963.261 2044.14,972.212 2045.5,981.098 2046.86,989.918 2048.22,998.669 2049.58,1007.35 2050.94,1015.95 2052.3,1024.49 2053.65,1032.94 2055.01,1041.31 
  2056.37,1049.61 2057.73,1057.82 2059.09,1065.95 2060.45,1073.99 2061.8,1081.94 2063.16,1089.81 2064.52,1097.59 2065.88,1105.27 2067.24,1112.86 2068.6,1120.37 
  2069.95,1127.77 2071.31,1135.08 2072.67,1142.3 2074.03,1149.42 2075.39,1156.44 2076.75,1163.36 2078.11,1170.19 2079.46,1176.91 2080.82,1183.54 2082.18,1190.07 
  2083.54,1196.5 2084.9,1202.83 2086.26,1209.05 2087.61,1215.18 2088.97,1221.21 2090.33,1227.14 2091.69,1232.97 2093.05,1238.69 2094.41,1244.32 2095.76,1249.85 
  2097.12,1255.28 2098.48,1260.62 2099.84,1265.85 2101.2,1270.99 2102.56,1276.03 2103.91,1280.97 2105.27,1285.82 2106.63,1290.57 2107.99,1295.23 2109.35,1299.79 
  2110.71,1304.26 2112.07,1308.64 2113.42,1312.92 2114.78,1317.12 2116.14,1321.23 2117.5,1325.24 2118.86,1329.17 2120.22,1333.02 2121.57,1336.77 2122.93,1340.45 
  2124.29,1344.03 2125.65,1347.54 2127.01,1350.96 2128.37,1354.31 2129.72,1357.57 2131.08,1360.76 2132.44,1363.86 2133.8,1366.9 2135.16,1369.85 2136.52,1372.74 
  2137.88,1375.55 2139.23,1378.29 2140.59,1380.96 2141.95,1383.56 2143.31,1386.09 2144.67,1388.55 2146.03,1390.95 2147.38,1393.29 2148.74,1395.56 2150.1,1397.77 
  2151.46,1399.92 2152.82,1402.01 2154.18,1404.04 2155.53,1406.02 2156.89,1407.93 2158.25,1409.8 2159.61,1411.61 2160.97,1413.36 2162.33,1415.07 2163.68,1416.72 
  2165.04,1418.33 2166.4,1419.89 2167.76,1421.4 2169.12,1422.86 2170.48,1424.28 2171.84,1425.66 2173.19,1426.99 2174.55,1428.28 2175.91,1429.53 2177.27,1430.74 
  2178.63,1431.92 2179.99,1433.05 2181.34,1434.15 2182.7,1435.21 2184.06,1436.24 2185.42,1437.23 2186.78,1438.19 2188.14,1439.12 2189.49,1440.01 2190.85,1440.88 
  2192.21,1441.72 2193.57,1442.52 2194.93,1443.3 2196.29,1444.06 2197.64,1444.78 2199,1445.48 2200.36,1446.16 2201.72,1446.81 2203.08,1447.44 2204.44,1448.04 
  2205.8,1448.63 2207.15,1449.19 2208.51,1449.73 2209.87,1450.25 2211.23,1450.75 2212.59,1451.24 2213.95,1451.7 2215.3,1452.15 2216.66,1452.58 2218.02,1452.99 
  2219.38,1453.39 2220.74,1453.77 2222.1,1454.14 2223.45,1454.5 2224.81,1454.83 2226.17,1455.16 2227.53,1455.47 2228.89,1455.77 2230.25,1456.06 2231.61,1456.34 
  2232.96,1456.61 2234.32,1456.86 2235.68,1457.1 2237.04,1457.34 2238.4,1457.56 2239.76,1457.78 2241.11,1457.98 2242.47,1458.18 2243.83,1458.37 2245.19,1458.55 
  2246.55,1458.73 2247.91,1458.89 2249.26,1459.05 2250.62,1459.2 2251.98,1459.35 2253.34,1459.49 2254.7,1459.62 2256.06,1459.75 2257.41,1459.87 2258.77,1459.98 
  2260.13,1460.1 
  "/>
<polyline clip-path="url(#clip2303)" style="stroke:#218921; stroke-width:60; stroke-opacity:1; fill:none" points="
  222.522,1462.26 223.881,1462.26 225.239,1462.26 226.598,1462.26 227.956,1462.26 229.314,1462.26 230.673,1462.26 232.031,1462.26 233.39,1462.26 234.748,1462.26 
  236.106,1462.26 237.465,1462.26 238.823,1462.26 240.182,1462.26 241.54,1462.26 242.898,1462.26 244.257,1462.26 245.615,1462.26 246.974,1462.26 248.332,1462.26 
  249.69,1462.26 251.049,1462.26 252.407,1462.26 253.766,1462.26 255.124,1462.26 256.482,1462.26 257.841,1462.26 259.199,1462.26 260.558,1462.26 261.916,1462.26 
  263.275,1462.26 264.633,1462.26 265.991,1462.26 267.35,1462.26 268.708,1462.26 270.067,1462.26 271.425,1462.26 272.783,1462.26 274.142,1462.26 275.5,1462.26 
  276.859,1462.26 278.217,1462.26 279.575,1462.26 280.934,1462.26 282.292,1462.26 283.651,1462.26 285.009,1462.26 286.367,1462.26 287.726,1462.26 289.084,1462.26 
  290.443,1462.26 291.801,1462.26 293.159,1462.26 294.518,1462.26 295.876,1462.26 297.235,1462.26 298.593,1462.26 299.951,1462.26 301.31,1462.26 302.668,1462.26 
  304.027,1462.26 305.385,1462.26 306.743,1462.26 308.102,1462.26 309.46,1462.26 310.819,1462.26 312.177,1462.26 313.536,1462.26 314.894,1462.26 316.252,1462.26 
  317.611,1462.26 318.969,1462.26 320.328,1462.26 321.686,1462.26 323.044,1462.26 324.403,1462.26 325.761,1462.26 327.12,1462.26 328.478,1462.26 329.836,1462.26 
  331.195,1462.26 332.553,1462.26 333.912,1462.26 335.27,1462.26 336.628,1462.26 337.987,1462.26 339.345,1462.26 340.704,1462.26 342.062,1462.26 343.42,1462.26 
  344.779,1462.26 346.137,1462.26 347.496,1462.26 348.854,1462.26 350.212,1462.26 351.571,1462.26 352.929,1462.26 354.288,1462.26 355.646,1462.26 357.005,1462.26 
  358.363,1462.26 359.721,1462.26 361.08,1462.26 362.438,1462.26 363.797,1462.26 365.155,1462.26 366.513,1462.26 367.872,1462.26 369.23,1462.26 370.589,1462.26 
  371.947,1462.26 373.305,1462.26 374.664,1462.26 376.022,1462.26 377.381,1462.26 378.739,1462.26 380.097,1462.26 381.456,1462.26 382.814,1462.26 384.173,1462.26 
  385.531,1462.26 386.889,1462.26 388.248,1462.26 389.606,1462.26 390.965,1462.26 392.323,1462.26 393.681,1462.26 395.04,1462.26 396.398,1462.26 397.757,1462.26 
  399.115,1462.26 400.474,1462.26 401.832,1462.26 403.19,1462.26 404.549,1462.26 405.907,1462.26 407.266,1462.26 408.624,1462.26 409.982,1462.26 411.341,1462.26 
  412.699,1462.26 414.058,1462.26 415.416,1462.26 416.774,1462.26 418.133,1462.26 419.491,1462.26 420.85,1462.26 422.208,1462.26 423.566,1462.26 424.925,1462.26 
  426.283,1462.26 427.642,1462.26 429,1462.26 430.358,1462.26 431.717,1462.26 433.075,1462.26 434.434,1462.26 435.792,1462.26 437.15,1462.26 438.509,1462.26 
  439.867,1462.26 441.226,1462.26 442.584,1462.26 443.943,1462.26 445.301,1462.26 446.659,1462.26 448.018,1462.26 449.376,1462.26 450.735,1462.26 452.093,1462.26 
  453.451,1462.26 454.81,1462.26 456.168,1462.26 457.527,1462.26 458.885,1462.26 460.243,1462.26 461.602,1462.26 462.96,1462.26 464.319,1462.26 465.677,1462.26 
  467.035,1462.26 468.394,1462.26 469.752,1462.26 471.111,1462.26 472.469,1462.26 473.827,1462.26 475.186,1462.26 476.544,1462.26 477.903,1462.26 479.261,1462.26 
  480.619,1462.26 481.978,1462.26 483.336,1462.26 484.695,1462.26 486.053,1462.26 487.412,1462.26 488.77,1462.26 490.128,1462.26 491.487,1462.26 492.845,1462.26 
  494.204,1462.26 495.562,1462.26 496.92,1462.26 498.279,1462.26 499.637,1462.26 500.996,1462.26 502.354,1462.26 503.712,1462.26 505.071,1462.26 506.429,1462.26 
  507.788,1462.26 509.146,1462.26 510.504,1462.26 511.863,1462.26 513.221,1462.26 514.58,1462.26 515.938,1462.26 517.296,1462.26 518.655,1462.26 520.013,1462.26 
  521.372,1462.26 522.73,1462.26 524.088,1462.26 525.447,1462.26 526.805,1462.26 528.164,1462.26 529.522,1462.26 530.881,1462.26 532.239,1462.26 533.597,1462.26 
  534.956,1462.26 536.314,1462.26 537.673,1462.26 539.031,1462.26 540.389,1462.26 541.748,1462.26 543.106,1462.26 544.465,1462.26 545.823,1462.26 547.181,1462.26 
  548.54,1462.26 549.898,1462.26 551.257,1462.26 552.615,1462.26 553.973,1462.26 555.332,1462.26 556.69,1462.26 558.049,1462.26 559.407,1462.26 560.765,1462.26 
  562.124,1462.26 563.482,1462.26 564.841,1462.26 566.199,1462.26 567.557,1462.26 568.916,1462.26 570.274,1462.26 571.633,1462.26 572.991,1462.26 574.35,1462.26 
  575.708,1462.26 577.066,1462.26 578.425,1462.26 579.783,1462.26 581.142,1462.26 582.5,1462.26 583.858,1462.26 585.217,1462.26 586.575,1462.26 587.934,1462.26 
  589.292,1462.26 590.65,1462.26 592.009,1462.26 593.367,1462.26 594.726,1462.26 596.084,1462.26 597.442,1462.26 598.801,1462.26 600.159,1462.26 601.518,1462.26 
  602.876,1462.26 604.234,1462.26 605.593,1462.26 606.951,1462.26 608.31,1462.26 609.668,1462.26 611.026,1462.26 612.385,1462.26 613.743,1462.26 615.102,1462.26 
  616.46,1462.26 617.819,1462.26 619.177,1462.26 620.535,1462.26 621.894,1462.26 623.252,1462.26 624.611,1462.26 625.969,1462.26 627.327,1462.26 628.686,1462.26 
  630.044,1462.26 631.403,1462.26 632.761,1462.26 634.119,1462.26 635.478,1462.26 636.836,1462.26 638.195,1462.26 639.553,1462.26 640.911,1462.26 642.27,1462.26 
  643.628,1462.26 644.987,1462.26 646.345,1462.26 647.703,1462.26 649.062,1462.26 650.42,1462.26 651.779,1462.26 653.137,1462.26 654.495,1462.26 655.854,1462.26 
  657.212,1462.26 658.571,1462.26 659.929,1462.26 661.288,1462.26 662.646,1462.26 664.004,1462.26 665.363,1462.26 666.721,1462.26 668.08,1462.26 669.438,1462.26 
  670.796,1462.26 672.155,1462.26 673.513,1462.26 674.872,1462.26 676.23,1462.26 677.588,1462.26 678.947,1462.26 680.305,1462.26 681.664,1462.26 683.022,1462.26 
  684.38,1462.26 685.739,1462.26 687.097,1462.26 688.456,1462.26 689.814,1462.26 691.172,1462.26 692.531,1462.26 693.889,1462.26 695.248,1462.26 696.606,1462.26 
  697.964,1462.26 699.323,1462.26 700.681,1462.26 702.04,1462.26 703.398,1462.26 704.757,1462.26 706.115,1462.26 707.473,1462.26 708.832,1462.26 710.19,1462.26 
  711.549,1462.26 712.907,1462.26 714.265,1462.26 715.624,1462.26 716.982,1462.26 718.341,1462.26 719.699,1462.26 721.057,1462.26 722.416,1462.26 723.774,1462.26 
  725.133,1462.26 726.491,1462.26 727.849,1462.26 729.208,1462.26 730.566,1462.26 731.925,1462.26 733.283,1462.26 734.641,1462.26 736,1462.26 737.358,1462.26 
  738.717,1462.26 740.075,1462.26 741.433,1462.26 742.792,1462.26 744.15,1462.26 745.509,1462.26 746.867,1462.26 748.226,1462.26 749.584,1462.26 750.942,1462.26 
  752.301,1462.26 753.659,1462.26 755.018,1462.26 756.376,1462.26 757.734,1462.26 759.093,1462.26 760.451,1462.26 761.81,1462.26 763.168,1462.26 764.526,1462.26 
  765.885,1462.26 767.243,1462.26 768.602,1462.26 769.96,1462.26 771.318,1462.26 772.677,1462.26 774.035,1462.26 775.394,1462.26 776.752,1462.26 778.11,1462.26 
  779.469,1462.26 780.827,1462.26 782.186,1462.26 783.544,1462.26 784.902,1462.26 786.261,1462.26 787.619,1462.26 788.978,1462.26 790.336,1462.26 791.694,1462.26 
  793.053,1462.26 794.411,1462.26 795.77,1462.26 797.128,1462.26 798.487,1462.26 799.845,1462.26 801.203,1462.26 802.562,1462.26 803.92,1462.26 805.279,1462.26 
  806.637,1462.26 807.995,1462.26 809.354,1462.26 810.712,1462.26 812.071,1462.26 813.429,1462.26 814.787,1462.26 816.146,1462.26 817.504,1462.26 818.863,1462.26 
  820.221,1462.26 821.579,1462.26 822.938,1462.26 824.296,1462.26 825.655,1462.26 827.013,1462.26 828.371,1462.26 829.73,1462.26 831.088,1462.26 832.447,1462.26 
  833.805,1462.26 835.163,1462.26 836.522,1462.26 837.88,1462.26 839.239,1462.26 840.597,1462.26 841.956,1462.26 843.314,1462.26 844.672,1462.26 846.031,1462.26 
  847.389,1462.26 848.748,1462.26 850.106,1462.26 851.464,1462.26 852.823,1462.26 854.181,1462.26 855.54,1462.26 856.898,1462.26 858.256,1462.26 859.615,1462.26 
  860.973,1462.26 862.332,1462.26 863.69,1462.26 865.048,1462.26 866.407,1462.26 867.765,1462.26 869.124,1462.26 870.482,1462.26 871.84,1462.26 873.199,1462.26 
  874.557,1462.26 875.916,1462.26 877.274,1462.26 878.632,1462.26 879.991,1462.26 881.349,1462.26 882.708,1462.26 884.066,1462.26 885.425,1462.26 886.783,1462.26 
  888.141,1462.26 889.5,1462.26 890.858,1462.26 892.217,1462.26 893.575,1462.26 894.933,1462.26 896.292,1462.26 897.65,1462.26 899.009,1462.26 900.367,1462.26 
  901.725,1462.26 903.084,1462.26 904.442,1462.26 905.801,1462.26 907.159,1462.26 908.517,1462.26 909.876,1462.26 911.234,1462.26 912.593,1462.26 913.951,1462.26 
  915.309,1462.26 916.668,1462.26 918.026,1462.26 919.385,1462.26 920.743,1462.26 922.101,1462.26 923.46,1462.26 924.818,1462.26 926.177,1462.26 927.535,1462.26 
  928.894,1462.26 930.252,1462.26 931.61,1462.26 932.969,1462.26 934.327,1462.26 935.686,1462.26 937.044,1462.26 938.402,1462.26 939.761,1462.26 941.119,1462.26 
  942.478,1462.26 943.836,1462.26 945.194,1462.26 946.553,1462.26 947.911,1462.26 949.27,1462.26 950.628,1462.26 951.986,1462.26 953.345,1462.26 954.703,1462.26 
  956.062,1462.26 957.42,1462.26 958.778,1462.26 960.137,1462.26 961.495,1462.26 962.854,1462.26 964.212,1462.26 965.57,1462.26 966.929,1462.26 968.287,1462.26 
  969.646,1462.26 971.004,1462.26 972.363,1462.26 973.721,1462.26 975.079,1462.26 976.438,1462.26 977.796,1462.26 979.155,1462.26 980.513,1462.26 981.871,1462.26 
  983.23,1462.26 984.588,1462.26 985.947,1462.26 987.305,1462.26 988.663,1462.26 990.022,1462.26 991.38,1462.26 992.739,1462.26 994.097,1462.26 995.455,1462.26 
  996.814,1462.26 998.172,1462.26 999.531,1462.26 1000.89,1462.26 1002.25,1462.26 1003.61,1462.26 1004.96,1462.26 1006.32,1462.26 1007.68,1462.26 1009.04,1462.26 
  1010.4,1462.26 1011.76,1462.26 1013.11,1462.26 1014.47,1462.26 1015.83,1462.26 1017.19,1462.26 1018.55,1462.26 1019.91,1462.26 1021.27,1462.26 1022.62,1462.26 
  1023.98,1462.26 1025.34,1462.26 1026.7,1462.26 1028.06,1462.26 1029.42,1462.26 1030.77,1462.26 1032.13,1462.26 1033.49,1462.26 1034.85,1462.26 1036.21,1462.26 
  1037.57,1462.26 1038.92,1462.26 1040.28,1462.26 1041.64,1462.26 1043,1462.26 1044.36,1462.26 1045.72,1462.26 1047.07,1462.26 1048.43,1462.26 1049.79,1462.26 
  1051.15,1462.26 1052.51,1462.26 1053.87,1462.26 1055.23,1462.26 1056.58,1462.26 1057.94,1462.26 1059.3,1462.26 1060.66,1462.26 1062.02,1462.26 1063.38,1462.26 
  1064.73,1462.26 1066.09,1462.26 1067.45,1462.26 1068.81,1462.26 1070.17,1462.26 1071.53,1462.26 1072.88,1462.26 1074.24,1462.26 1075.6,1462.26 1076.96,1462.26 
  1078.32,1462.26 1079.68,1462.26 1081.04,1462.26 1082.39,1462.26 1083.75,1462.26 1085.11,1462.26 1086.47,1462.26 1087.83,1462.26 1089.19,1462.26 1090.54,1462.26 
  1091.9,1462.26 1093.26,1462.26 1094.62,1462.26 1095.98,1462.26 1097.34,1462.26 1098.69,1462.26 1100.05,1462.26 1101.41,1462.26 1102.77,1462.26 1104.13,1462.26 
  1105.49,1462.26 1106.84,1462.26 1108.2,1462.26 1109.56,1462.26 1110.92,1462.26 1112.28,1462.26 1113.64,1462.26 1115,1462.26 1116.35,1462.26 1117.71,1462.26 
  1119.07,1462.26 1120.43,1462.26 1121.79,1462.26 1123.15,1462.26 1124.5,1462.26 1125.86,1462.26 1127.22,1462.26 1128.58,1462.26 1129.94,1462.26 1131.3,1462.26 
  1132.65,1462.26 1134.01,1462.26 1135.37,1462.26 1136.73,1462.26 1138.09,1462.26 1139.45,1462.26 1140.8,1462.26 1142.16,1462.26 1143.52,1462.26 1144.88,1462.26 
  1146.24,1462.26 1147.6,1462.26 1148.96,1462.26 1150.31,1462.26 1151.67,1462.26 1153.03,1462.26 1154.39,1462.26 1155.75,1462.26 1157.11,1462.26 1158.46,1462.26 
  1159.82,1462.26 1161.18,1462.26 1162.54,1462.26 1163.9,1462.26 1165.26,1462.26 1166.61,1462.26 1167.97,1462.26 1169.33,1462.26 1170.69,1462.26 1172.05,1462.26 
  1173.41,1462.26 1174.77,1462.26 1176.12,1462.26 1177.48,1462.26 1178.84,1462.26 1180.2,1462.26 1181.56,1462.26 1182.92,1462.26 1184.27,1462.26 1185.63,1462.26 
  1186.99,1462.26 1188.35,1462.26 1189.71,1462.26 1191.07,1462.26 1192.42,1462.26 1193.78,1462.26 1195.14,1462.26 1196.5,1462.26 1197.86,1462.26 1199.22,1462.26 
  1200.57,1462.26 1201.93,1462.26 1203.29,1462.26 1204.65,1462.26 1206.01,1462.26 1207.37,1462.26 1208.73,1462.26 1210.08,1462.26 1211.44,1462.26 1212.8,1462.26 
  1214.16,1462.26 1215.52,1462.26 1216.88,1462.26 1218.23,1462.26 1219.59,1462.26 1220.95,1462.26 1222.31,1462.26 1223.67,1462.26 1225.03,1462.26 1226.38,1462.26 
  1227.74,1462.26 1229.1,1462.26 1230.46,1462.26 1231.82,1462.26 1233.18,1462.26 1234.53,1462.26 1235.89,1462.26 1237.25,1462.26 1238.61,1462.26 1239.97,1462.26 
  1241.33,1462.26 1242.69,1462.26 1244.04,1462.26 1245.4,1462.26 1246.76,1462.26 1248.12,1462.26 1249.48,1462.26 1250.84,1462.26 1252.19,1462.26 1253.55,1462.26 
  1254.91,1462.26 1256.27,1462.26 1257.63,1462.26 1258.99,1462.26 1260.34,1462.26 1261.7,1462.26 1263.06,1462.26 1264.42,1462.26 1265.78,1462.26 1267.14,1462.26 
  1268.5,1462.26 1269.85,1462.26 1271.21,1462.26 1272.57,1462.26 1273.93,1462.26 1275.29,1462.26 1276.65,1462.26 1278,1462.26 1279.36,1462.26 1280.72,1462.26 
  1282.08,1462.26 1283.44,1462.26 1284.8,1462.26 1286.15,1462.26 1287.51,1462.26 1288.87,1462.26 1290.23,1462.26 1291.59,1462.26 1292.95,1462.26 1294.3,1462.26 
  1295.66,1462.26 1297.02,1462.26 1298.38,1462.26 1299.74,1462.26 1301.1,1462.26 1302.46,1462.26 1303.81,1462.26 1305.17,1462.26 1306.53,1462.26 1307.89,1462.26 
  1309.25,1462.26 1310.61,1462.26 1311.96,1462.26 1313.32,1462.26 1314.68,1462.26 1316.04,1462.26 1317.4,1462.26 1318.76,1462.26 1320.11,1462.26 1321.47,1462.26 
  1322.83,1462.26 1324.19,1462.26 1325.55,1462.26 1326.91,1462.26 1328.26,1462.26 1329.62,1462.26 1330.98,1462.26 1332.34,1462.26 1333.7,1462.26 1335.06,1462.26 
  1336.42,1462.26 1337.77,1462.26 1339.13,1462.26 1340.49,1462.26 1341.85,1462.26 1343.21,1462.26 1344.57,1462.26 1345.92,1462.26 1347.28,1462.26 1348.64,1462.26 
  1350,1462.26 1351.36,1462.26 1352.72,1462.26 1354.07,1462.26 1355.43,1462.26 1356.79,1462.26 1358.15,1462.26 1359.51,1462.26 1360.87,1462.26 1362.23,1462.26 
  1363.58,1462.26 1364.94,1462.26 1366.3,1462.26 1367.66,1462.26 1369.02,1462.26 1370.38,1462.26 1371.73,1462.26 1373.09,1462.26 1374.45,1462.26 1375.81,1462.26 
  1377.17,1462.26 1378.53,1462.26 1379.88,1462.26 1381.24,1462.26 1382.6,1462.26 1383.96,1462.26 1385.32,1462.26 1386.68,1462.26 1388.03,1462.26 1389.39,1462.26 
  1390.75,1462.26 1392.11,1462.26 1393.47,1462.26 1394.83,1462.26 1396.19,1462.26 1397.54,1462.26 1398.9,1462.26 1400.26,1462.26 1401.62,1462.26 1402.98,1462.26 
  1404.34,1462.26 1405.69,1462.26 1407.05,1462.26 1408.41,1462.26 1409.77,1462.26 1411.13,1462.26 1412.49,1462.26 1413.84,1462.26 1415.2,1462.26 1416.56,1462.26 
  1417.92,1462.26 1419.28,1462.26 1420.64,1462.26 1421.99,1462.26 1423.35,1462.26 1424.71,1462.26 1426.07,1462.26 1427.43,1462.26 1428.79,1462.26 1430.15,1462.26 
  1431.5,1462.26 1432.86,1462.26 1434.22,1462.26 1435.58,1462.26 1436.94,1462.26 1438.3,1462.26 1439.65,1462.26 1441.01,1462.26 1442.37,1462.26 1443.73,1462.26 
  1445.09,1462.26 1446.45,1462.26 1447.8,1462.26 1449.16,1462.26 1450.52,1462.26 1451.88,1462.26 1453.24,1462.26 1454.6,1462.26 1455.96,1462.26 1457.31,1462.26 
  1458.67,1462.26 1460.03,1462.26 1461.39,1462.26 1462.75,1462.25 1464.11,1462.25 1465.46,1462.25 1466.82,1462.25 1468.18,1462.25 1469.54,1462.25 1470.9,1462.25 
  1472.26,1462.25 1473.61,1462.25 1474.97,1462.25 1476.33,1462.25 1477.69,1462.25 1479.05,1462.24 1480.41,1462.24 1481.76,1462.24 1483.12,1462.24 1484.48,1462.24 
  1485.84,1462.24 1487.2,1462.23 1488.56,1462.23 1489.92,1462.23 1491.27,1462.23 1492.63,1462.22 1493.99,1462.22 1495.35,1462.22 1496.71,1462.21 1498.07,1462.21 
  1499.42,1462.21 1500.78,1462.2 1502.14,1462.2 1503.5,1462.19 1504.86,1462.19 1506.22,1462.18 1507.57,1462.17 1508.93,1462.17 1510.29,1462.16 1511.65,1462.15 
  1513.01,1462.14 1514.37,1462.14 1515.72,1462.13 1517.08,1462.11 1518.44,1462.1 1519.8,1462.09 1521.16,1462.08 1522.52,1462.07 1523.88,1462.05 1525.23,1462.03 
  1526.59,1462.02 1527.95,1462 1529.31,1461.98 1530.67,1461.96 1532.03,1461.94 1533.38,1461.91 1534.74,1461.89 1536.1,1461.86 1537.46,1461.83 1538.82,1461.8 
  1540.18,1461.77 1541.53,1461.73 1542.89,1461.7 1544.25,1461.66 1545.61,1461.61 1546.97,1461.57 1548.33,1461.52 1549.69,1461.47 1551.04,1461.41 1552.4,1461.36 
  1553.76,1461.29 1555.12,1461.23 1556.48,1461.16 1557.84,1461.08 1559.19,1461.01 1560.55,1460.92 1561.91,1460.83 1563.27,1460.74 1564.63,1460.64 1565.99,1460.53 
  1567.34,1460.42 1568.7,1460.3 1570.06,1460.17 1571.42,1460.04 1572.78,1459.9 1574.14,1459.75 1575.49,1459.59 1576.85,1459.42 1578.21,1459.24 1579.57,1459.05 
  1580.93,1458.86 1582.29,1458.65 1583.65,1458.42 1585,1458.19 1586.36,1457.94 1587.72,1457.68 1589.08,1457.41 1590.44,1457.12 1591.8,1456.81 1593.15,1456.49 
  1594.51,1456.15 1595.87,1455.79 1597.23,1455.41 1598.59,1455.02 1599.95,1454.6 1601.3,1454.16 1602.66,1453.7 1604.02,1453.22 1605.38,1452.71 1606.74,1452.17 
  1608.1,1451.61 1609.46,1451.02 1610.81,1450.41 1612.17,1449.76 1613.53,1449.08 1614.89,1448.36 1616.25,1447.62 1617.61,1446.84 1618.96,1446.02 1620.32,1445.16 
  1621.68,1444.26 1623.04,1443.32 1624.4,1442.34 1625.76,1441.31 1627.11,1440.24 1628.47,1439.12 1629.83,1437.95 1631.19,1436.73 1632.55,1435.45 1633.91,1434.12 
  1635.26,1432.73 1636.62,1431.29 1637.98,1429.78 1639.34,1428.21 1640.7,1426.57 1642.06,1424.86 1643.42,1423.09 1644.77,1421.24 1646.13,1419.32 1647.49,1417.33 
  1648.85,1415.25 1650.21,1413.1 1651.57,1410.86 1652.92,1408.53 1654.28,1406.12 1655.64,1403.61 1657,1401.01 1658.36,1398.32 1659.72,1395.53 1661.07,1392.63 
  1662.43,1389.63 1663.79,1386.53 1665.15,1383.32 1666.51,1379.99 1667.87,1376.55 1669.22,1373 1670.58,1369.32 1671.94,1365.52 1673.3,1361.6 1674.66,1357.55 
  1676.02,1353.37 1677.38,1349.06 1678.73,1344.61 1680.09,1340.02 1681.45,1335.29 1682.81,1330.42 1684.17,1325.4 1685.53,1320.24 1686.88,1314.92 1688.24,1309.45 
  1689.6,1303.83 1690.96,1298.04 1692.32,1292.1 1693.68,1286 1695.03,1279.73 1696.39,1273.29 1697.75,1266.69 1699.11,1259.91 1700.47,1252.97 1701.83,1245.85 
  1703.19,1238.55 1704.54,1231.08 1705.9,1223.43 1707.26,1215.61 1708.62,1207.6 1709.98,1199.41 1711.34,1191.04 1712.69,1182.49 1714.05,1173.75 1715.41,1164.83 
  1716.77,1155.72 1718.13,1146.44 1719.49,1136.96 1720.84,1127.31 1722.2,1117.47 1723.56,1107.45 1724.92,1097.25 1726.28,1086.86 1727.64,1076.3 1728.99,1065.56 
  1730.35,1054.64 1731.71,1043.55 1733.07,1032.28 1734.43,1020.84 1735.79,1009.24 1737.15,997.47 1738.5,985.537 1739.86,973.444 1741.22,961.195 1742.58,948.793 
  1743.94,936.241 1745.3,923.545 1746.65,910.708 1748.01,897.734 1749.37,884.628 1750.73,871.396 1752.09,858.041 1753.45,844.57 1754.8,830.988 1756.16,817.301 
  1757.52,803.515 1758.88,789.636 1760.24,775.67 1761.6,761.625 1762.95,747.507 1764.31,733.323 1765.67,719.081 1767.03,704.788 1768.39,690.451 1769.75,676.079 
  1771.11,661.68 1772.46,647.261 1773.82,632.831 1775.18,618.4 1776.54,603.974 1777.9,589.564 1779.26,575.178 1780.61,560.826 1781.97,546.516 1783.33,532.258 
  1784.69,518.061 1786.05,503.935 1787.41,489.889 1788.76,475.934 1790.12,462.078 1791.48,448.332 1792.84,434.705 1794.2,421.208 1795.56,407.85 1796.92,394.64 
  1798.27,381.589 1799.63,368.707 1800.99,356.003 1802.35,343.488 1803.71,331.17 1805.07,319.059 1806.42,307.166 1807.78,295.499 1809.14,284.067 1810.5,272.88 
  1811.86,261.948 1813.22,251.278 1814.57,240.879 1815.93,230.761 1817.29,220.932 1818.65,211.399 1820.01,202.172 1821.37,193.257 1822.72,184.662 1824.08,176.395 
  1825.44,168.462 1826.8,160.871 1828.16,153.629 1829.52,146.74 1830.88,140.212 1832.23,134.05 1833.59,128.26 1834.95,122.846 1836.31,117.814 1837.67,113.168 
  1839.03,108.911 1840.38,105.049 1841.74,101.584 1843.1,98.5186 1844.46,95.8567 1845.82,93.6003 1847.18,91.7513 1848.53,90.3116 1849.89,89.2822 1851.25,88.6642 
  1852.61,88.4582 1853.97,88.6642 1855.33,89.2822 1856.68,90.3116 1858.04,91.7513 1859.4,93.6003 1860.76,95.8567 1862.12,98.5186 1863.48,101.584 1864.84,105.049 
  1866.19,108.911 1867.55,113.168 1868.91,117.814 1870.27,122.846 1871.63,128.26 1872.99,134.05 1874.34,140.212 1875.7,146.74 1877.06,153.629 1878.42,160.871 
  1879.78,168.462 1881.14,176.395 1882.49,184.662 1883.85,193.257 1885.21,202.172 1886.57,211.399 1887.93,220.932 1889.29,230.761 1890.65,240.879 1892,251.278 
  1893.36,261.948 1894.72,272.88 1896.08,284.067 1897.44,295.499 1898.8,307.166 1900.15,319.059 1901.51,331.17 1902.87,343.488 1904.23,356.003 1905.59,368.707 
  1906.95,381.589 1908.3,394.64 1909.66,407.85 1911.02,421.208 1912.38,434.705 1913.74,448.332 1915.1,462.078 1916.45,475.934 1917.81,489.889 1919.17,503.935 
  1920.53,518.061 1921.89,532.258 1923.25,546.516 1924.61,560.826 1925.96,575.178 1927.32,589.564 1928.68,603.974 1930.04,618.4 1931.4,632.831 1932.76,647.261 
  1934.11,661.68 1935.47,676.079 1936.83,690.451 1938.19,704.788 1939.55,719.081 1940.91,733.323 1942.26,747.507 1943.62,761.625 1944.98,775.67 1946.34,789.636 
  1947.7,803.515 1949.06,817.301 1950.41,830.988 1951.77,844.57 1953.13,858.041 1954.49,871.396 1955.85,884.628 1957.21,897.734 1958.57,910.708 1959.92,923.545 
  1961.28,936.241 1962.64,948.793 1964,961.195 1965.36,973.444 1966.72,985.537 1968.07,997.47 1969.43,1009.24 1970.79,1020.84 1972.15,1032.28 1973.51,1043.55 
  1974.87,1054.64 1976.22,1065.56 1977.58,1076.3 1978.94,1086.86 1980.3,1097.25 1981.66,1107.45 1983.02,1117.47 1984.38,1127.31 1985.73,1136.96 1987.09,1146.44 
  1988.45,1155.72 1989.81,1164.83 1991.17,1173.75 1992.53,1182.49 1993.88,1191.04 1995.24,1199.41 1996.6,1207.6 1997.96,1215.61 1999.32,1223.43 2000.68,1231.08 
  2002.03,1238.55 2003.39,1245.85 2004.75,1252.97 2006.11,1259.91 2007.47,1266.69 2008.83,1273.29 2010.18,1279.73 2011.54,1286 2012.9,1292.1 2014.26,1298.04 
  2015.62,1303.83 2016.98,1309.45 2018.34,1314.92 2019.69,1320.24 2021.05,1325.4 2022.41,1330.42 2023.77,1335.29 2025.13,1340.02 2026.49,1344.61 2027.84,1349.06 
  2029.2,1353.37 2030.56,1357.55 2031.92,1361.6 2033.28,1365.52 2034.64,1369.32 2035.99,1373 2037.35,1376.55 2038.71,1379.99 2040.07,1383.32 2041.43,1386.53 
  2042.79,1389.63 2044.14,1392.63 2045.5,1395.53 2046.86,1398.32 2048.22,1401.01 2049.58,1403.61 2050.94,1406.12 2052.3,1408.53 2053.65,1410.86 2055.01,1413.1 
  2056.37,1415.25 2057.73,1417.33 2059.09,1419.32 2060.45,1421.24 2061.8,1423.09 2063.16,1424.86 2064.52,1426.57 2065.88,1428.21 2067.24,1429.78 2068.6,1431.29 
  2069.95,1432.73 2071.31,1434.12 2072.67,1435.45 2074.03,1436.73 2075.39,1437.95 2076.75,1439.12 2078.11,1440.24 2079.46,1441.31 2080.82,1442.34 2082.18,1443.32 
  2083.54,1444.26 2084.9,1445.16 2086.26,1446.02 2087.61,1446.84 2088.97,1447.62 2090.33,1448.36 2091.69,1449.08 2093.05,1449.76 2094.41,1450.41 2095.76,1451.02 
  2097.12,1451.61 2098.48,1452.17 2099.84,1452.71 2101.2,1453.22 2102.56,1453.7 2103.91,1454.16 2105.27,1454.6 2106.63,1455.02 2107.99,1455.41 2109.35,1455.79 
  2110.71,1456.15 2112.07,1456.49 2113.42,1456.81 2114.78,1457.12 2116.14,1457.41 2117.5,1457.68 2118.86,1457.94 2120.22,1458.19 2121.57,1458.42 2122.93,1458.65 
  2124.29,1458.86 2125.65,1459.05 2127.01,1459.24 2128.37,1459.42 2129.72,1459.59 2131.08,1459.75 2132.44,1459.9 2133.8,1460.04 2135.16,1460.17 2136.52,1460.3 
  2137.88,1460.42 2139.23,1460.53 2140.59,1460.64 2141.95,1460.74 2143.31,1460.83 2144.67,1460.92 2146.03,1461.01 2147.38,1461.08 2148.74,1461.16 2150.1,1461.23 
  2151.46,1461.29 2152.82,1461.36 2154.18,1461.41 2155.53,1461.47 2156.89,1461.52 2158.25,1461.57 2159.61,1461.61 2160.97,1461.66 2162.33,1461.7 2163.68,1461.73 
  2165.04,1461.77 2166.4,1461.8 2167.76,1461.83 2169.12,1461.86 2170.48,1461.89 2171.84,1461.91 2173.19,1461.94 2174.55,1461.96 2175.91,1461.98 2177.27,1462 
  2178.63,1462.02 2179.99,1462.03 2181.34,1462.05 2182.7,1462.07 2184.06,1462.08 2185.42,1462.09 2186.78,1462.1 2188.14,1462.11 2189.49,1462.13 2190.85,1462.14 
  2192.21,1462.14 2193.57,1462.15 2194.93,1462.16 2196.29,1462.17 2197.64,1462.17 2199,1462.18 2200.36,1462.19 2201.72,1462.19 2203.08,1462.2 2204.44,1462.2 
  2205.8,1462.21 2207.15,1462.21 2208.51,1462.21 2209.87,1462.22 2211.23,1462.22 2212.59,1462.22 2213.95,1462.23 2215.3,1462.23 2216.66,1462.23 2218.02,1462.23 
  2219.38,1462.24 2220.74,1462.24 2222.1,1462.24 2223.45,1462.24 2224.81,1462.24 2226.17,1462.24 2227.53,1462.25 2228.89,1462.25 2230.25,1462.25 2231.61,1462.25 
  2232.96,1462.25 2234.32,1462.25 2235.68,1462.25 2237.04,1462.25 2238.4,1462.25 2239.76,1462.25 2241.11,1462.25 2242.47,1462.25 2243.83,1462.26 2245.19,1462.26 
  2246.55,1462.26 2247.91,1462.26 2249.26,1462.26 2250.62,1462.26 2251.98,1462.26 2253.34,1462.26 2254.7,1462.26 2256.06,1462.26 2257.41,1462.26 2258.77,1462.26 
  2260.13,1462.26 
  "/>
</svg>
